<?xml version="1.0" encoding="UTF-8"?>
<svg id="Camada_1" data-name="Camada 1" xmlns="http://www.w3.org/2000/svg" viewBox="0 0 310.8 138.27">
  <defs>
    <style>
      .cls-1 {
        fill: #fff;
      }
    </style>
  </defs>
  <path class="cls-1" d="m75.63,60.04l43.53,21.72c3.8-2.07,7.72-6.11,10.36-9.75l-52.51-26.02c-1.35,4.33-2.18,10.03-1.39,14.06"/>
  <path class="cls-1" d="m130.43,62.47c-.83-5.53-1.93-11.02-3.29-16.45l-40.42-19.93c-3.05,3.24-5.72,7.11-6.75,11.5l50.46,24.88Z"/>
  <path class="cls-1" d="m118.19,120.57c3.48-1.7,6.98-3.63,9.36-6.57,3.3-4.07,4.01-9.44,4.36-14.53.48-6.93.53-13.88.16-20.8-7.16,7.43-16.4,13.42-26.61,17.64-5.3,2.19-8.85,2.01-14.26,4.03-4.18,1.56-7.8,5.71-12.31,7.11-.13-4.94-.03-10.84-1.74-14.98-10.39-25.08-13.74-53.43,8.74-74.83,4.02-3.83,7.71-6.3,11.03-7.99-19.14-3.09-38.9-2.98-58.06.36-4.23.74-8.52,1.66-12.24,3.73-5.86,3.26-9.67,8.99-12.64,14.77C5,45.96,1.71,65.48.26,84.77c-.32,4.31-.55,8.71.62,12.87,2.77,9.76,12.48,16.07,21.7,21.18,12.96,7.19,29.23,15.12,44.75,15.36,17.03.27,35.92-6.29,50.86-13.61"/>
  <path class="cls-1" d="m111.03,86.7l-34.34-17.38c-.16,3.51,1.45,8.09,2.43,11.14,2.64,8.32,12.78,13.99,21.14,10.95,2.72-.99,7.73-2.43,10.77-4.71"/>
  <g>
    <path class="cls-1" d="m157.65,71.99l-.32-.03c-.34,0-.59-.03-.74-.1l.42-.1s-.11-.03-.32-.03c-.47.04-.96.06-1.47.06-.43,0-.71-.02-.83-.06h-.03c-.11-.02-.26-.03-.45-.03-.09,0-.17,0-.26-.03-.08-.02-.17-.04-.24-.05-.08,0-.18-.04-.32-.08-.14-.04-.23-.06-.27-.06-.41,0-1.1-.26-2.08-.77-.85-.41-1.51-.83-1.96-1.28-.71-.98-1.07-1.51-1.09-1.57-.13-.26-.25-.54-.37-.85-.12-.31-.2-.62-.24-.95-.02-.15-.05-.28-.1-.38-.04-.11-.08-.23-.1-.38-.06-.23-.1-.45-.1-.64.04.04.1.07.16.08s.12.04.16.08l-.45-.77.06-.29c0-.24-.01-.46-.03-.67-.02-.21-.03-.54-.03-.99,0-.3-.01-.52-.03-.66-.02-.14-.03-.27-.03-.4,0-.11.02-.19.05-.26.03-.06.05-.15.05-.26,0-.13-.01-.25-.03-.35-.02-.11-.03-.2-.03-.29s0-.15-.02-.19-.02-.09-.02-.13l-.03-1.15c0-.49-.02-.85-.05-1.07s-.05-.45-.05-.69l.06-.64c-.02-.11-.04-.18-.06-.22s-.03-.21-.03-.51l.03-.29-.06-.54c0-.62-.05-1.21-.14-1.78-.1-.57-.38-1.08-.85-1.55-1.05-1.05-1.68-1.73-1.89-2.05l-.19-.38c0-.13.31-.46.93-.99l.58-.51c.19-.19.42-.48.67-.87.34-.51.51-.78.51-.8l.03-2.18c-.02-.09-.03-.25-.03-.48-.04-.08-.06-.23-.06-.45l.03-.13c0-.11-.02-.23-.05-.37s-.05-.33-.05-.56c0-.13,0-.23.03-.32,0-.15-.01-.23-.03-.26-.06-.26-.1-.42-.1-.48,0-.04.02-.11.05-.19.03-.08.05-.2.05-.35l-.03-.32c0-.08.01-.16.03-.22v-.32c-.04-.21-.06-.44-.06-.67,0-.13.02-.26.06-.38,0-.28-.03-.5-.08-.67-.05-.17-.08-.35-.08-.54l.06-.29-.03-.35c-.06-.21-.1-.58-.1-1.09,0-.32.01-.52.03-.61v-.35c0-.19-.05-.43-.16-.71-.06-.13-.1-.24-.1-.32,0-.06.03-.16.1-.29.06-.13.11-.25.13-.35.02-.11.05-.19.1-.26.17-.51.26-1.22.26-2.12,0-.15.19-.51.58-1.09.43-.88.89-1.53,1.38-1.96.75-.68,1.68-1.23,2.79-1.63.9-.34,1.81-.58,2.72-.71.75-.11,1.17-.16,1.25-.16.21,0,.33-.01.35-.03.02-.02.1-.03.22-.03.43.09.98.13,1.67.13.3,0,.46,0,.48-.03l.19-.03s.11.03.21.03.23.04.4.13c.06.04.16.09.29.14.13.05.23.1.32.14h.16s-.01-.03-.03-.03l-.32-.13c.32-.11.75-.16,1.28-.16l.83.03c.45.06.7.1.75.1s.11.01.18.03c.15-.02.37-.03.67-.03.04.02.13.03.26.03.3.06.57.18.8.35.02.02.13.04.34.06s.44.05.72.1c.28.04,1.05.47,2.32,1.28,1.27.81,2.04,1.38,2.31,1.7.27.32.53.81.79,1.46s.38,1.2.38,1.65c0,.02,0,.06.02.13.01.06.05.16.11.27.06.12.1.22.1.3,0,.06-.01.1-.03.1l-.03-.03h-.1s.04.13.11.26c.07.13.14.28.19.45.05.17.08.3.08.38-.02.11-.03.33-.03.67l.03.35-.06.51-.19-.29c.04.15.08.3.11.45s.06.24.08.26c0,.68-.03,1.08-.1,1.19l-.06.8.03.71c0,.3-.01.48-.03.54-.02.06-.03.14-.03.22l-.06-.22h-.03c0,.06.05.34.16.83,0,.11,0,.19.03.26,0,.43-.11.78-.32,1.06-.3.34-.87.52-1.7.54v.03l.19.03c-.08,0-.17.01-.24.03s-.16.03-.24.03c-.3,0-.6-.02-.91-.06s-.85-.06-1.62-.06c-.6,0-.94,0-1.03-.03-.94,0-1.51-.01-1.7-.03h-.64c-.36,0-.78-.2-1.25-.61-.15-.17-.28-.37-.38-.61-.06-.06-.12-.43-.16-1.09,0-.28.01-.45.03-.53.02-.08.03-.16.03-.24,0-.13-.02-.26-.05-.4-.03-.14-.05-.28-.05-.43,0-.11.02-.2.05-.29.03-.09.05-.29.05-.61,0-1.09-.13-1.92-.38-2.5-.11-.28-.17-.42-.19-.42l-.74-.32.13.1c-.09,0-.16-.01-.22-.03h-.22c-.26-.08-.73-.13-1.41-.13-.43,0-.83.05-1.22.16-.24.24-.38.47-.42.71-.11.36-.16.6-.16.72s-.02.3-.06.56l-.19.03c-.06,0-.14-.02-.22-.05s-.14-.05-.16-.05c-.04,0-.06.01-.06.03,0,.11.05.21.16.32.19.19.32.38.38.56.06.18.11.32.13.42.02.1.04.18.06.24,0,.28-.01.47-.03.58-.02.11-.03.21-.03.32,0,.09.01.17.03.24.02.08.03.16.03.24-.02.04-.03.1-.03.16,0,.08,0,.14.03.16.02.15.03.57.03,1.25-.02.11-.03.27-.03.48v.8c0,.45.01.74.03.87.02.13.03.31.03.54-.02.21-.03.78-.03,1.7,0,.41.02.74.06.99v.71c0,.09.22.47.67,1.15.15.24.41.5.77.8.43.41.77.68,1.03.83.23.24.35.5.35.8s-.25.7-.74,1.19l-.74.61c-.21.17-.44.45-.67.83-.19.26-.32.45-.38.58-.13.13-.19.31-.19.54-.02.11-.03.32-.03.64l.03.35c0,.11-.01.17-.03.19-.02.02-.03.08-.03.16,0,.06.02.14.05.22.03.08.05.15.05.19s.01.11.03.19c0,.15-.04.35-.13.61-.04-.06-.09-.1-.13-.1-.02,0-.03.04-.03.13,0,.32.02.49.06.5s.09.04.13.08c.04.04.06.09.06.13,0,.62.01,1.02.03,1.19,0,.45.01.72.03.8,0,.09-.02.16-.06.22l.06.42-.03.99c0,.28.01.45.03.51v.19c.02.11.03.3.03.58-.04.09-.06.38-.06.87v.71c0,.34.01.55.03.62.02.08.03.16.03.24,0,.04-.02.09-.05.14-.03.05-.05.11-.05.18,0,.11.02.22.05.34.03.12.06.19.08.22.02.03.05.07.1.11.17.32.53.48,1.09.48.08.02.13.04.13.06,0,.04-.03.07-.08.08s-.08.03-.08.05l.13.03c.08.04.21.06.38.06.11,0,.27-.02.48-.06l.03-.1.35-.06c.32,0,.59.04.8.13l-.03-.06v-.06s.07-.11.22-.26c.21-.23.36-.43.45-.58.13-.23.19-.55.19-.96l.03-.45v-.9c0-.79.49-1.27,1.47-1.44l.26-.03,1.12.03c.24,0,.41.02.53.06.12.04.24.06.37.06.56-.02,1.07-.05,1.54-.1l.83.03.71.06c.3,0,.47-.02.51-.06.02,0,.12.04.3.11.18.08.38.17.61.27.22.11.45.22.69.35-.04-.04-.07-.09-.08-.14s-.02-.09-.02-.11c.13.09.21.16.26.22.04.06.11.17.19.3.09.14.13.32.13.53l.1.35v.29c-.02.06-.03.13-.03.19s-.01.12-.03.16v.16c-.06.19-.1.56-.1,1.09.02.04.03.09.03.13s.01.1.03.16c0,.17-.02.3-.06.38-.09.19-.14.37-.16.54-.06.26-.11.43-.13.53-.02.1-.07.25-.14.45-.08.2-.21.53-.4.98-.09.21-.36.71-.83,1.47-.38.64-.72,1.03-.99,1.15-.08.04-.18.11-.29.19-.11.09-.26.18-.45.29-.94.51-1.56.77-1.86.77-.26.06-.45.13-.58.21-.13.08-.23.12-.3.13-.08.01-.13.03-.18.05-1.15.19-2.43.29-3.81.29-1.18,0-1.84.01-1.99.03Zm5-7.6c.08,0,.19-.03.32-.1.13-.06.22-.12.29-.16l.1-.03s-.04-.07-.13-.08c-.08-.01-.17-.02-.26-.03-.09-.01-.18-.02-.29-.02-.68,0-1.03.05-1.03.16,0,.02.02.04.06.06.45.13.76.19.93.19Z"/>
    <path class="cls-1" d="m176.05,75.23c-.15,0-.28-.01-.38-.03-1.03,0-1.67-.02-1.92-.06-.43-.04-.76-.21-.99-.51-.21-.36-.32-.72-.32-1.06s-.01-.85-.03-1.54c-.02-.68-.09-2.3-.19-4.84l-.03-.67c0-.47-.03-.82-.1-1.06,0-.43,0-.67.03-.72s.03-.13.03-.24c0-.13-.03-.4-.1-.8l.03-.45c0-.56-.05-.99-.16-1.31v-3.11c-.06-.15-.1-.52-.1-1.12l.03-.54c0-.47-.03-.76-.1-.87l-.1-.42c.04-.06.06-.37.06-.93,0-.71-.02-1.25-.06-1.65-.04-.4-.2-.75-.48-1.07l-.77-.77c-.56-.53-.89-.91-.99-1.12-.04-.02-.06-.04-.06-.06s0-.05-.03-.1c0-.13.02-.29.06-.48.17-.41.47-.92.9-1.54.43-.62.79-1.25,1.09-1.89,0-.04-.02-.1-.05-.18-.03-.07-.05-.23-.05-.46,0-.26.01-.44.03-.56.02-.12.03-.22.03-.3,0-.47-.02-.94-.06-1.41-.02-.13-.03-.31-.03-.54,0-.49.01-.89.03-1.19l.03-.22c0-.24-.03-.4-.08-.5-.05-.1-.08-.46-.08-1.11l.13-.51c-.09-.13-.14-.27-.16-.42,0-.34-.02-.64-.06-.9,0-.3-.01-.47-.03-.51v-.16c-.02-.06-.03-.2-.03-.42l.06-.19c.08-.15.17-.22.26-.22s.13-.01.13-.03v-.03s-.09-.11-.19-.19c-.21-.19-.32-.4-.32-.61v-.32c.02-.06.03-.15.03-.26,0-.09-.01-.15-.03-.19,0-1.11.1-2.08.29-2.92.19-.83.48-1.77.87-2.82l.13-.29c.15-.26.31-.47.48-.64s.36-.34.58-.51.44-.36.67-.58c.75-.56,1.45-1.01,2.12-1.38.92-.45,1.86-.73,2.82-.83.53-.04,1.11-.06,1.73-.06.04,0,.09-.02.14-.06.05-.04.33-.08.82-.13h1.44c.21,0,.35-.02.4-.05.05-.03.1-.06.14-.08.08,0,.18.01.27.03.1.02.3.03.62.03.36-.02.56-.04.58-.06l.8-.03.51.13.45-.13c.11,0,.18-.01.22-.03,1.03,0,1.61.02,1.75.05.14.03.32.07.54.11.22.04.5.09.82.13l.99.29c2.89,1.11,4.65,2.71,5.29,4.81.24.79.41,1.47.51,2.05.04.24.08.37.13.4s.06.12.06.27c0,.06-.08.21-.22.45-.04.08-.06.29-.06.61,0,.47-.04.86-.13,1.15v.03l.13.03v.06s.03.15.03.32.01.27.03.3c.02.03.03.07.03.11l-.06,1.35c0,.09,0,.15.02.19.01.04.02.16.02.35v.45c-.06.34-.1.68-.1,1.03s-.03.58-.1.71c-.06.13-.1.2-.1.22l-.06.61.03.26c.08.21.13.45.13.71l-.06.35c0,.11.01.19.03.26.02.06.03.14.03.22,0,.06-.01.12-.03.16-.02.04-.03.09-.03.13s.01.09.03.14c.02.05.03.11.03.18l-.1.48c-.02.06-.03.16-.03.29l.03.29c0,.17-.02.33-.06.48,0,.26-.01.45-.03.58,0,.26.01.48.03.67.04.26.18.58.42.96-.08,3.29-.2,5.06-.34,5.31-.14.25-.21.38-.22.4-.01.02-.02.07-.03.14-.01.08-.03.22-.05.43-.06.36-.1.77-.1,1.22-.02.88-.06,1.39-.13,1.54,0,.79-.03,1.26-.1,1.41-.02.02-.06.03-.13.03s-.1.01-.1.03c-.15.24-.22.61-.22,1.12,0,.13.02.19.06.19h.03c.08-.08.19-.13.32-.13l.06.03c0,.15-.03.51-.1,1.09,0,.04.01.08.03.1.02.02.03.05.03.1,0,.34-.02.68-.05,1.01-.03.33-.05.67-.05,1.01l.03.64c0,.24-.08.51-.22.83l-.1.38s0,.06.02.06.04.03.08.1.08.14.1.22c.02.08.03.17.03.24v.18c0,.09-.01.16-.03.21-.02.05-.03.14-.03.27.02.11.03.26.03.45,0,.45-.04.82-.13,1.12l-.06.61c.02.11.04.21.05.3.01.1.02.33.02.69.02.15.03.31.03.48,0,.41-.03.66-.1.77v.93l.03.38c0,.32-.19.63-.58.93-.36.19-.84.32-1.44.38-.19.02-1.55.03-4.07.03-.09.02-.2.03-.35.03h-.58c-.26.02-.52.01-.8-.03-.19,0-.41-.06-.64-.19-.36-.19-.63-.43-.8-.71-.09-.13-.13-.34-.13-.64.02-.06.03-.44.03-1.12.02-.06.03-.27.03-.61.02-.06.05-.11.1-.14.04-.03.08-.07.13-.11.04-.15.06-.3.06-.45,0-.02-.01-.03-.03-.03-.09.13-.13.21-.14.24s-.03.08-.05.14c-.06-.11-.1-.25-.1-.42l.06-.99-.03-.45c-.02-.11-.03-.23-.03-.38.04-.28.06-.57.06-.87.02-.06.03-.24.03-.51,0-.13-.02-.24-.05-.34-.03-.1-.05-.19-.05-.27,0-.06.01-.13.03-.21s.03-.21.03-.4l.03-1.09-.06-.77c0-.15.01-.29.03-.42.02-.13.03-.32.03-.58v-.71l.03-.29-.03-.71c0-.11.01-.18.03-.22.02-.04.06-.16.11-.35.05-.19.15-.52.3-.99v.03c-.06.06-.19.16-.38.29-.09-.45-.19-.69-.3-.74-.12-.04-.26-.06-.43-.06l-.87-.16.19.19-.06.06s-.09-.02-.19-.06c-.11-.04-.21-.08-.32-.11-.11-.03-.24-.08-.38-.16s-.28-.12-.38-.14l.35.32s-.01.03-.03.03-.05,0-.1-.02-.1-.02-.16-.02h-.24c-.05,0-.18.02-.37.05-.19.03-.4.07-.61.11-.21.04-.41.08-.59.11-.18.03-.29.06-.34.08-.04.02-.1.04-.16.06,0,.02-.04.1-.13.24-.08.14-.17.26-.26.37-.09.11-.13.18-.13.22l.03.06.1-.06c.02-.09.07-.13.16-.13.13,0,.19.16.19.48,0,.26-.04.46-.13.61v.22s.05-.03.1-.03.06.13.06.38c0,.11-.02.22-.06.35l-.03.87.06.42v.71c.06,1.2.1,2.39.1,3.59,0,.26-.01.49-.03.71-.02.21-.03.44-.03.67.08,3.76.13,5.78.13,6.06.06.71.12,1.08.16,1.12s.06.08.06.1c0,.13-.11.29-.32.48-.38.36-.83.54-1.35.54l-1.03-.03c-.28,0-.48.01-.61.03-.21,0-.36-.01-.45-.03,0-.02-.02-.03-.06-.03l-.51.1h-1.12c-.08.02-.18.03-.29.03Zm6.41-25.58c.13,0,.25-.02.35-.06h.22c.06.02.14.03.22.03.17,0,.33-.02.48-.05s.4-.05.74-.05c.28,0,.44.01.5.03.05.02.11.03.18.03l1.22-.1s.07-.05.08-.14c.01-.1.06-.19.14-.27s.17-.13.24-.13.11-.01.11-.03-.02-.07-.05-.14c-.03-.07-.06-.13-.08-.18l-.06-.06-.16.29-.06-.45c0-.21-.01-.36-.03-.45v-.64c.02-.28.03-.71.03-1.28,0-.36.01-.57.03-.62.02-.05.03-.38.03-.98l-.06-1.54c0-.71.02-1.08.05-1.12s.05-.08.05-.13l-.06-.1c0-.21.01-.37.03-.48.08-.88.13-1.57.13-2.08,0-.08-.01-.17-.03-.26-.02-.09-.03-.42-.03-.99.04-.32.06-.54.06-.67-.04-.3-.06-.53-.06-.71.02-.13.03-.54.03-1.25,0-.9-.13-1.47-.38-1.73-.13-.15-.28-.28-.45-.38-.04,0-.16-.02-.35-.05-.19-.03-.42-.06-.69-.08-.27-.02-.46-.04-.59-.06-.13-.02-.25-.03-.35-.03-.11.02-.22.04-.34.05-.12.01-.26.03-.42.06s-.36.06-.59.08c-.68.13-1.14.58-1.38,1.35-.08.28-.13.57-.13.87.02.06.03.17.03.32,0,.21-.01.43-.03.64s-.03.51-.03.9c0,.26.02.41.05.46.03.05.05.62.05,1.71l.1.9s-.01.1-.03.18-.04.25-.06.53c0,.54-.03,1.04-.1,1.51,0,.17.01.26.03.26.08.13.13.31.13.54,0,.36,0,.59-.02.69-.01.1-.02.17-.02.21s0,.09.02.13c.01.04.02.1.02.16,0,.09-.01.18-.03.27-.02.1-.03.19-.03.27s.02.16.06.22.06.5.06,1.31c.02.17.03.41.03.71,0,.24-.03.47-.1.71v.42c.04.32.06.56.06.71,0,.38.03.6.08.64.05.04.17.06.34.06.43,0,.71.02.83.06Zm.48,7.08c.13,0,.19-.03.19-.1-.02-.06-.13-.12-.32-.16l-.29-.1s-.03.01-.03.03l.03.1c.11.15.25.22.42.22Zm3.37-.42h.03c.06,0,.11-.05.14-.16.03-.11.06-.18.08-.22l.03-.06s-.06.04-.13.11c-.06.08-.11.13-.13.18s-.03.08-.03.1v.06Z"/>
    <path class="cls-1" d="m214.07,73.44c-.3,0-.52-.01-.66-.03-.14-.02-.28-.03-.43-.03-.06,0-.13.01-.21.03-.08.02-.16.03-.24.03l-.38-.03c-.34,0-.68-.02-1.03-.06-1.58,0-2.5-.04-2.76-.13-.04-.02-.14-.03-.29-.03-.73,0-1.73-.3-3.01-.9-.51-.26-1-.61-1.47-1.06-.62-.53-1.12-1.1-1.51-1.7-.32-.41-.58-.88-.77-1.41-.11-.28-.16-.48-.16-.61v-.13s-.08-.12-.16-.29c-.09-.17-.14-.39-.18-.66-.03-.27-.06-.49-.08-.66,0-.13.01-.21.03-.26l-.1-1.7c0-.53-.01-.87-.03-.99-.04-.26-.06-.64-.06-1.15,0-.02.01-.06.03-.11.02-.05.03-.11.03-.18-.02-.06-.03-.15-.03-.26-.09-.58-.13-1.2-.13-1.86,0-.51.25-.87.74-1.06.23-.11.69-.16,1.38-.16.83,0,1.4-.02,1.7-.06.36,0,.59-.02.67-.06.34,0,.57.02.67.06.11.04.2.08.29.1.08.02.16.05.22.1.08,0,.15-.03.19-.08s.15-.08.32-.08l1.06.13c.11.02.19.03.24.03s.24.04.56.13c-.04-.02-.08-.05-.1-.08-.02-.03-.04-.05-.06-.05.56.04.99.15,1.31.32s.48.54.48,1.12c0,.28-.01.43-.03.45s-.03.05-.03.1c0,.17.02.32.05.45.03.13.05.33.05.61l-.03.19c0,.11.01.22.03.35.02.13.03.25.03.35,0,.15-.01.27-.03.37-.02.1-.03.21-.03.34l.03.38c0,.21-.03.42-.1.61-.04.09-.06.17-.06.26l.03.13.13-.1.06.45.03.26-.03.54c.08.24.19.45.32.64.06.19.25.31.54.35.13.02.37.11.74.26l-.19-.19.19.03c.85,0,1.47-.04,1.86-.13.04-.04.14-.1.29-.16.11-.11.18-.33.22-.67s.08-.53.1-.58l-.1-.87.06-.71c0-.13-.01-.24-.03-.32v-.32c0-.19.02-.33.06-.42l.03-.26c-.09-.17-.13-.4-.13-.67.02-.06.03-.21.03-.45s.01-.37.03-.42v-.13l.06-.1c.06,0,.11.03.13.1,0-.06-.02-.14-.06-.24-.04-.1-.07-.2-.08-.3-.01-.11-.02-.21-.02-.32l.42.1c.09,0,.13-.01.13-.03,0-.06-.06-.14-.18-.22-.12-.09-.21-.19-.29-.3-.08-.12-.11-.2-.11-.24,0-.02.01-.06.03-.11.02-.05.03-.21.03-.46-.04-.13-.06-.37-.06-.74-.04-.21-.06-.38-.06-.51l-.03-.16s-.13-.1-.26-.22c-.75-.53-1.73-1.09-2.95-1.67l-.64-.32-2.02-.99c-.83-.49-1.4-.79-1.7-.9-.11-.04-.27-.12-.5-.24-.22-.12-.41-.22-.54-.3-.14-.09-.27-.16-.4-.22-.34-.17-.55-.28-.62-.32-.08-.04-.2-.12-.37-.22.02.04.04.06.06.06s.04.02.06.06c-.53-.32-1.12-.73-1.76-1.22-.81-.62-1.33-1.1-1.54-1.44-.32-.53-.58-1.37-.77-2.5-.19-.94-.29-1.76-.29-2.47v-.54c-.02-.06-.03-.13-.03-.21s-.09-.32-.26-.72c-.34-.6-.87-1.23-1.57-1.89l-.93-.61c-.43-.24-.64-.46-.64-.67,0-.15.06-.27.19-.35l.67-.38c.13-.06.26-.18.38-.35.38-.49.67-.81.87-.96.06-.04.15-.14.26-.29.11-.15.22-.31.35-.48l.42-.67c-.02-.15-.03-.69-.03-1.64-.02-.15-.03-.49-.03-1.03.08-1.2.36-2.36.83-3.49.51-1.2,1.17-2.19,1.99-2.98.94-.75,2.01-1.26,3.21-1.54.43-.13.67-.19.74-.19.28-.15.49-.24.62-.26.14-.02.35-.03.62-.03l.61.13s-.08-.05-.11-.08c-.03-.03-.06-.06-.08-.08,1.79,0,2.72-.03,2.79-.08.06-.05.18-.08.35-.08s.46.09.87.26l.26-.03h.74c.21,0,.33-.01.35-.03.23,0,.43.01.58.03.32.06.71.1,1.15.1.64,0,1.41.11,2.31.32l1.28.35c.56.15,1.09.37,1.6.67.17.13.33.22.48.29.58.36,1.08.79,1.51,1.28.85.98,1.49,2.12,1.89,3.4.21.68.36,1.52.45,2.5,0,.24,0,.42.03.54l-.03.74c-.02.13-.03.4-.03.8s-.01.68-.03.82c-.02.14-.03.28-.03.43l.03.16c0,.38-.01.67-.03.87s-.03.37-.03.53-.01.31-.03.45c-.02.14-.03.27-.03.4l.06.61c0,.06-.02.13-.05.19s-.05.13-.05.19l.03.26v.51c-.06.11-.1.22-.1.35,0,.15.02.29.06.42.04.34.06.62.06.83-.02.28-.2.67-.55,1.19-.32.19-.71.34-1.15.45-.26.04-.46.06-.61.06-.45,0-.67-.02-.67-.06l.03-.1s-.05-.06-.16-.06c-.85.15-1.59.22-2.21.22-.19,0-.29,0-.29-.02s-.03-.02-.1-.02h-.26c-.32.04-.54.06-.67.06s-.25-.02-.35-.06l-.38.03c-.17,0-.31-.02-.42-.06l-.74.03c-.21,0-.37-.02-.46-.06-.1-.04-.19-.07-.27-.1-.28-.11-.44-.17-.48-.19-.08-.15-.16-.31-.21-.48-.05-.17-.08-.38-.08-.64,0-.11.01-.2.03-.29.02-.08.03-.3.03-.64,0-.3-.01-.52-.03-.66-.02-.14-.03-.28-.03-.43,0-.11.02-.21.05-.32.03-.11.05-.35.05-.74-.02-.13-.03-.27-.03-.42,0-.04,0-.09.03-.14.02-.05.03-.11.03-.18s-.01-.12-.03-.18c-.02-.05-.03-.11-.03-.18,0-.08.02-.19.05-.32.03-.13.05-.27.05-.42,0-.02-.02-.06-.06-.11-.04-.05-.06-.1-.06-.14,0-.06.01-.13.03-.19.02-.06.05-.19.1-.38,0-.19-.02-.36-.05-.51s-.07-.3-.11-.45c0-.3.02-.6.06-.9,0-.32-.01-.55-.03-.71-.04-.26-.2-.54-.48-.87-.19-.15-.33-.26-.4-.34-.08-.07-.43-.11-1.07-.11h-.93c-.06,0-.14,0-.22-.03-.09-.02-.17-.03-.26-.03l-.32.1c-.09.04-.15.09-.19.13l-.32.22c-.32.56-.48,1.02-.48,1.38,0,.24.03.48.08.74.05.26.08.49.08.71l-.06.38c0,.06,0,.12.03.16.02.04.03.14.03.29-.04.17-.06.49-.06.96,0,.62,0,.99.03,1.11.02.12.03.54.03,1.27-.02.09-.03.2-.03.35l-.03.26c0,.17,0,.32.03.45v.67c0,1.56.32,2.49.96,2.79l.83.48c.51.32,1,.59,1.47.8.26.17.38.32.38.45,0,.24.29.38.87.45.04,0,.08-.03.13-.08.04-.05.08-.08.13-.08.26.13.41.2.46.22.05.02.11.05.18.1s.17.11.32.19c.62.41,1.13.68,1.54.83.24.13.42.21.54.26.26.19.4.3.42.34.02.03.05.06.08.08s.06.05.08.1c.32.04.58.1.77.16.68.43,1.03.65,1.04.66,0,.01.02.03.02.05s.04.06.13.13c.09.06.2.15.34.26.14.11.26.16.37.16.02,0,.03-.02.03-.05s.01-.05.03-.05c.06,0,.14.04.22.13s.33.3.74.64c.34.28.66.59.96.93.6.75.9,1.56.9,2.44,0,.13.02.34.06.64,0,.11-.08.16-.26.16-.13-.04-.25-.06-.35-.06-.04,0-.06.01-.06.03,0,.04.08.13.22.27s.27.28.37.43c.1.15.14.27.14.35v.03c-.04.08-.07.18-.08.27-.01.1-.03.19-.05.29-.02.1-.04.17-.05.22-.01.05-.02.11-.02.18l.06.93-.06.35c.24.36.46.65.67.87l.13.16,1.6,1.35c.08.21.13.35.13.42,0,.19-.02.33-.05.4s-.1.19-.21.34c-.24.32-.46.52-.69.61-.22.09-.39.2-.5.35-.96.94-1.44,1.52-1.44,1.73,0,.06.05.1.16.1-.04.32-.08.79-.13,1.41-.02.32-.05.58-.1.77-.06.45-.14.68-.22.71-.32.08-.48.21-.48.38,0,.13.12.19.35.19l-.03.13c-.71,1.37-1.69,2.47-2.95,3.3-1.35.9-2.78,1.35-4.3,1.35l-.22.03-1.47.06Zm-6.83-48.63l-.13-.03-.03.03h.16Zm3.37,8.4c.08,0,.13,0,.13-.03s-.11-.05-.32-.1l-.13.03c.13.06.23.1.32.1Zm3.11-8.11l-.03-.03s-.12-.09-.3-.14-.34-.09-.46-.11c-.13-.02-.29-.03-.48-.03l-.1.03s.1.06.29.13c.49.13.85.18,1.09.16Zm3.49,24.08c.32,0,.48-.04.48-.13,0-.04-.1-.06-.29-.06-.36,0-.54.04-.54.13.06.02.12.04.18.05.05.01.11.02.18.02Z"/>
    <path class="cls-1" d="m231.35,75.23c-.15,0-.28-.01-.38-.03-1.03,0-1.67-.02-1.92-.06-.43-.04-.76-.21-.99-.51-.21-.36-.32-.72-.32-1.06s-.01-.85-.03-1.54c-.02-.68-.09-2.3-.19-4.84l-.03-.67c0-.47-.03-.82-.1-1.06,0-.43,0-.67.03-.72s.03-.13.03-.24c0-.13-.03-.4-.1-.8l.03-.45c0-.56-.05-.99-.16-1.31v-3.11c-.06-.15-.1-.52-.1-1.12l.03-.54c0-.47-.03-.76-.1-.87l-.1-.42c.04-.06.06-.37.06-.93,0-.71-.02-1.25-.06-1.65-.04-.4-.2-.75-.48-1.07l-.77-.77c-.56-.53-.89-.91-.99-1.12-.04-.02-.06-.04-.06-.06s0-.05-.03-.1c0-.13.02-.29.06-.48.17-.41.47-.92.9-1.54.43-.62.79-1.25,1.09-1.89,0-.04-.02-.1-.05-.18-.03-.07-.05-.23-.05-.46,0-.26.01-.44.03-.56.02-.12.03-.22.03-.3,0-.47-.02-.94-.06-1.41-.02-.13-.03-.31-.03-.54,0-.49.01-.89.03-1.19l.03-.22c0-.24-.03-.4-.08-.5-.05-.1-.08-.46-.08-1.11l.13-.51c-.09-.13-.14-.27-.16-.42,0-.34-.02-.64-.06-.9,0-.3-.01-.47-.03-.51v-.16c-.02-.06-.03-.2-.03-.42l.06-.19c.08-.15.17-.22.26-.22s.13-.01.13-.03v-.03s-.09-.11-.19-.19c-.21-.19-.32-.4-.32-.61v-.32c.02-.06.03-.15.03-.26,0-.09-.01-.15-.03-.19,0-1.11.1-2.08.29-2.92.19-.83.48-1.77.87-2.82l.13-.29c.15-.26.31-.47.48-.64s.36-.34.58-.51.44-.36.67-.58c.75-.56,1.45-1.01,2.12-1.38.92-.45,1.86-.73,2.82-.83.53-.04,1.11-.06,1.73-.06.04,0,.09-.02.14-.06.05-.04.33-.08.82-.13h1.44c.21,0,.35-.02.4-.05.05-.03.1-.06.14-.08.08,0,.18.01.27.03.1.02.3.03.62.03.36-.02.56-.04.58-.06l.8-.03.51.13.45-.13c.11,0,.18-.01.22-.03,1.03,0,1.61.02,1.75.05.14.03.32.07.54.11.22.04.5.09.82.13l.99.29c2.89,1.11,4.65,2.71,5.29,4.81.24.79.41,1.47.51,2.05.04.24.08.37.13.4s.06.12.06.27c0,.06-.08.21-.22.45-.04.08-.06.29-.06.61,0,.47-.04.86-.13,1.15v.03l.13.03v.06s.03.15.03.32.01.27.03.3c.02.03.03.07.03.11l-.06,1.35c0,.09,0,.15.02.19.01.04.02.16.02.35v.45c-.06.34-.1.68-.1,1.03s-.03.58-.1.71c-.06.13-.1.2-.1.22l-.06.61.03.26c.08.21.13.45.13.71l-.06.35c0,.11.01.19.03.26.02.06.03.14.03.22,0,.06-.01.12-.03.16-.02.04-.03.09-.03.13s.01.09.03.14c.02.05.03.11.03.18l-.1.48c-.02.06-.03.16-.03.29l.03.29c0,.17-.02.33-.06.48,0,.26-.01.45-.03.58,0,.26.01.48.03.67.04.26.18.58.42.96-.08,3.29-.2,5.06-.34,5.31-.14.25-.21.38-.22.4-.01.02-.02.07-.03.14-.01.08-.03.22-.05.43-.06.36-.1.77-.1,1.22-.02.88-.06,1.39-.13,1.54,0,.79-.03,1.26-.1,1.41-.02.02-.06.03-.13.03s-.1.01-.1.03c-.15.24-.22.61-.22,1.12,0,.13.02.19.06.19h.03c.08-.08.19-.13.32-.13l.06.03c0,.15-.03.51-.1,1.09,0,.04.01.08.03.1.02.02.03.05.03.1,0,.34-.02.68-.05,1.01-.03.33-.05.67-.05,1.01l.03.64c0,.24-.08.51-.22.83l-.1.38s0,.06.02.06.04.03.08.1.08.14.1.22c.02.08.03.17.03.24v.18c0,.09-.01.16-.03.21-.02.05-.03.14-.03.27.02.11.03.26.03.45,0,.45-.04.82-.13,1.12l-.06.61c.02.11.04.21.05.3.01.1.02.33.02.69.02.15.03.31.03.48,0,.41-.03.66-.1.77v.93l.03.38c0,.32-.19.63-.58.93-.36.19-.84.32-1.44.38-.19.02-1.55.03-4.07.03-.09.02-.2.03-.35.03h-.58c-.26.02-.52.01-.8-.03-.19,0-.41-.06-.64-.19-.36-.19-.63-.43-.8-.71-.09-.13-.13-.34-.13-.64.02-.06.03-.44.03-1.12.02-.06.03-.27.03-.61.02-.06.05-.11.1-.14.04-.03.08-.07.13-.11.04-.15.06-.3.06-.45,0-.02-.01-.03-.03-.03-.09.13-.13.21-.14.24s-.03.08-.05.14c-.06-.11-.1-.25-.1-.42l.06-.99-.03-.45c-.02-.11-.03-.23-.03-.38.04-.28.06-.57.06-.87.02-.06.03-.24.03-.51,0-.13-.02-.24-.05-.34-.03-.1-.05-.19-.05-.27,0-.06.01-.13.03-.21s.03-.21.03-.4l.03-1.09-.06-.77c0-.15.01-.29.03-.42.02-.13.03-.32.03-.58v-.71l.03-.29-.03-.71c0-.11.01-.18.03-.22.02-.04.06-.16.11-.35.05-.19.15-.52.3-.99v.03c-.06.06-.19.16-.38.29-.09-.45-.19-.69-.3-.74-.12-.04-.26-.06-.43-.06l-.87-.16.19.19-.06.06s-.09-.02-.19-.06c-.11-.04-.21-.08-.32-.11-.11-.03-.24-.08-.38-.16s-.28-.12-.38-.14l.35.32s-.01.03-.03.03-.05,0-.1-.02-.1-.02-.16-.02h-.24c-.05,0-.18.02-.37.05-.19.03-.4.07-.61.11-.21.04-.41.08-.59.11-.18.03-.29.06-.34.08-.04.02-.1.04-.16.06,0,.02-.04.1-.13.24-.08.14-.17.26-.26.37-.09.11-.13.18-.13.22l.03.06.1-.06c.02-.09.07-.13.16-.13.13,0,.19.16.19.48,0,.26-.04.46-.13.61v.22s.05-.03.1-.03.06.13.06.38c0,.11-.02.22-.06.35l-.03.87.06.42v.71c.06,1.2.1,2.39.1,3.59,0,.26-.01.49-.03.71-.02.21-.03.44-.03.67.08,3.76.13,5.78.13,6.06.06.71.12,1.08.16,1.12s.06.08.06.1c0,.13-.11.29-.32.48-.38.36-.83.54-1.35.54l-1.03-.03c-.28,0-.48.01-.61.03-.21,0-.36-.01-.45-.03,0-.02-.02-.03-.06-.03l-.51.1h-1.12c-.08.02-.18.03-.29.03Zm6.41-25.58c.13,0,.25-.02.35-.06h.22c.06.02.14.03.22.03.17,0,.33-.02.48-.05s.4-.05.74-.05c.28,0,.44.01.5.03.05.02.11.03.18.03l1.22-.1s.07-.05.08-.14c.01-.1.06-.19.14-.27s.17-.13.24-.13.11-.01.11-.03-.02-.07-.05-.14c-.03-.07-.06-.13-.08-.18l-.06-.06-.16.29-.06-.45c0-.21-.01-.36-.03-.45v-.64c.02-.28.03-.71.03-1.28,0-.36.01-.57.03-.62.02-.05.03-.38.03-.98l-.06-1.54c0-.71.02-1.08.05-1.12s.05-.08.05-.13l-.06-.1c0-.21.01-.37.03-.48.08-.88.13-1.57.13-2.08,0-.08-.01-.17-.03-.26-.02-.09-.03-.42-.03-.99.04-.32.06-.54.06-.67-.04-.3-.06-.53-.06-.71.02-.13.03-.54.03-1.25,0-.9-.13-1.47-.38-1.73-.13-.15-.28-.28-.45-.38-.04,0-.16-.02-.35-.05-.19-.03-.42-.06-.69-.08-.27-.02-.46-.04-.59-.06-.13-.02-.25-.03-.35-.03-.11.02-.22.04-.34.05-.12.01-.26.03-.42.06s-.36.06-.59.08c-.68.13-1.14.58-1.38,1.35-.08.28-.13.57-.13.87.02.06.03.17.03.32,0,.21-.01.43-.03.64s-.03.51-.03.9c0,.26.02.41.05.46.03.05.05.62.05,1.71l.1.9s-.01.1-.03.18-.04.25-.06.53c0,.54-.03,1.04-.1,1.51,0,.17.01.26.03.26.08.13.13.31.13.54,0,.36,0,.59-.02.69-.01.1-.02.17-.02.21s0,.09.02.13c.01.04.02.1.02.16,0,.09-.01.18-.03.27-.02.1-.03.19-.03.27s.02.16.06.22.06.5.06,1.31c.02.17.03.41.03.71,0,.24-.03.47-.1.71v.42c.04.32.06.56.06.71,0,.38.03.6.08.64.05.04.17.06.34.06.43,0,.71.02.83.06Zm.48,7.08c.13,0,.19-.03.19-.1-.02-.06-.13-.12-.32-.16l-.29-.1s-.03.01-.03.03l.03.1c.11.15.25.22.42.22Zm3.37-.42h.03c.06,0,.11-.05.14-.16.03-.11.06-.18.08-.22l.03-.06s-.06.04-.13.11c-.06.08-.11.13-.13.18s-.03.08-.03.1v.06Z"/>
  </g>
  <g>
    <path class="cls-1" d="m275.52,72.76c-.13,0-.36-.02-.71-.06-.19-.02-.45-.03-.77-.03-.36,0-.65.01-.87.03l-1.6.06c-.47,0-.74-.03-.8-.1l-.58.03c-.06,0-.13-.02-.19-.05s-.14-.05-.22-.05l-.38.06-.71-.1.03-.06c-.19.06-.34.11-.43.13-.1.02-.39.03-.88.03-.53,0-.94-.02-1.2-.05-.27-.03-.44-.05-.53-.05s-.18-.01-.29-.03l-.16-.06c.23-.11.35-.18.35-.22,0-.02-.03-.03-.1-.03-.15,0-.35.02-.61.06-.13.04-.25.08-.35.11-.11.03-.16.06-.16.08l.06.06h-.22c-.08.02-.17.03-.24.03s-.17.01-.29.03c-.12.02-.23.03-.34.03l-.29-.03c-.24,0-.43-.12-.58-.35-.24-.3-.35-.59-.35-.87v-.58s-.03-.14-.03-.29c0-.21-.01-.4-.03-.54l-.06-1.73c-.02-.06-.03-.13-.03-.19,0-.08,0-.17.03-.24.02-.07.03-.14.03-.21,0-.17-.02-.34-.05-.5s-.05-.39-.05-.69v-.1l.03-1.44c.02-.28.1-.68.22-1.22-.02.02-.08.05-.16.1s-.15.08-.19.13l-.06-.35c0-.11.02-.2.05-.29.03-.08.05-.19.05-.32,0-.06-.02-.13-.05-.19s-.05-.13-.05-.19c0-.68.02-1.25.06-1.7l-.03-.42c-.11-.49-.16-.88-.16-1.15l.03-.61-.06-.77.03-.22v-.26c-.02-.06-.03-.25-.03-.54l.03-.51s-.02-.11-.05-.19-.06-.18-.08-.29c-.02-.11-.04-.19-.05-.24-.01-.05-.02-.12-.02-.21.02-.06.05-.16.08-.27.03-.12.23-.18.59-.18,0,.02.03.03.1.03.08,0,.13-.07.13-.22,0-.32-.06-.76-.19-1.31-.17-.68-.34-1.03-.51-1.03-.06,0-.1.11-.1.32l-.03,1.06s-.06-.12-.06-.35c0-.41-.11-.75-.32-1.03l-.19-.29c-.13-.11-.26-.22-.38-.34-.13-.12-.33-.35-.61-.69-.47-.21-.71-.62-.71-1.22,0-.49.09-.9.27-1.23s.46-.72.85-1.17l.45-.54c.17-.3.27-.54.3-.74s.05-.44.05-.74c-.02-.02-.03-.14-.03-.35-.02-.04-.03-.16-.03-.35,0-.36.01-.6.03-.71,0-.23-.02-.42-.06-.56-.04-.14-.05-.27-.03-.4,0-.06,0-.13.02-.19.01-.06.02-.26.02-.58,0-.45-.01-.76-.03-.93-.02-.17-.03-.37-.03-.61,0-.13.02-.19.06-.19l.19.13s.03-.03.03-.1-.08-.32-.26-.77c-.09,0-.13-.2-.13-.61l.06-1.41c0-.43-.04-.72-.11-.88-.08-.16-.11-.28-.11-.37,0-.06.01-.12.03-.16.02-.24.03-.54.03-.93,0-.32-.02-.58-.06-.77s-.06-.83-.06-1.92c0-.47-.02-.8-.05-.98-.03-.18-.05-.36-.05-.53s.01-.34.03-.51c.02-.17.03-.46.03-.87-.06-.3-.1-.62-.1-.96-.02-.15-.03-.36-.03-.64-.02-.02-.03-.25-.03-.67v-1.47c-.04-.11-.06-.26-.06-.45s0-.33.02-.4c.01-.08.26-.27.75-.59.51-.26.82-.41.93-.45h1.12c.34.02.52.03.54.03s.07.02.14.05c.08.03.16.06.24.08.08.02.23.03.45.03.17,0,.34-.02.51-.06h.38c.26.09.57.13.93.13.06,0,.12,0,.16-.03l1.15.03c.36,0,.58,0,.64-.03h.8c.21.04.47.06.77.06h.45c.26.04.59.06.99.06h1.96c.6.04.95.08,1.06.1.21.13.43.19.64.19.19,0,.29-.02.29-.06l-.03-.03s.06-.03.19-.03c.08.04.28.06.58.06.06-.02.15-.03.26-.03.06.02.32.05.77.1.56.11.95.17,1.19.19l.32.06c.19.13.4.19.61.19.43.06.98.26,1.67.58l.29.16c.41.19.81.45,1.22.77,1.37,1.13,2.39,2.31,3.08,3.53.32.71.57,1.33.74,1.86.08.34.17.76.26,1.25l.1.77v.19c.04.17.06.36.06.58,0,.34-.05.51-.16.51-.06,0-.12-.03-.16-.1l-.1-.1v.03c0,.15.07.37.22.67.02.02.04.04.06.06h.03c0,.09.01.16.03.22l.03.58c-.06.49-.1.8-.1.93l.03.48c-.09.17-.13.35-.13.54,0,.56.03.92.08,1.09.05.17.08.35.08.54-.06.02-.1.09-.1.19l.03.19v.26c-.04.26-.06.47-.06.64-.04.13-.06.24-.06.32,0,.15.01.26.03.32.02.06.03.2.03.42-.02.06-.03.17-.03.32-.02.06-.03.24-.03.51-.06.24-.1.46-.1.67v1.03c-.06.17-.1.4-.1.67l-.06.42c0,.24.19.63.58,1.19.26.26.64.66,1.15,1.22l.48.61c.17.26.26.48.26.67s-.29.61-.87,1.25l-.74.67c-.34.32-.6.64-.79.96-.18.32-.29.54-.32.64-.03.11-.05.49-.05,1.15-.02.11-.03.2-.03.27s-.01.15-.03.22c-.02.07-.03.13-.03.16s-.01.07-.03.11c.02-.04.05-.08.08-.1.03-.02.06-.05.08-.1l-.03.93c0,.38-.03.76-.08,1.12-.05.36-.08.73-.08,1.09,0,.28-.01.55-.03.82-.02.27-.03.57-.03.91-.04.24-.06.46-.06.67v.16c.02.06.03.34.03.83l-.03,1.22-.03.48c0,.17.01.3.03.38l.03.51-.03.29.03.22c-.02.09-.04.15-.06.19-.02.04-.04.11-.05.21-.01.1-.03.18-.05.24,0,.45-.03.84-.1,1.19v.13l.03.06-.03.26c-.06.11-.12.18-.16.22-.04.04-.06.12-.06.22,0,.19-.04.38-.13.54-.02.02-.09.17-.19.45-.04.04-.08.06-.1.06-.06,0-.12-.06-.16-.19,0-.04-.03-.06-.1-.06-.04,0-.15.04-.32.13-.06.04-.1.12-.1.22,0,.28.06.44.18.5.12.05.18.09.18.11l-.19.26c-.45.62-1.11,1.18-1.99,1.67-.41.24-.92.45-1.54.64-.77.24-1.44.35-2.02.35-.28,0-.68.05-1.22.16-.38,0-.58-.01-.58-.03l.16-.06-.26.03c-.53.11-.94.16-1.22.16Zm-1.09-6.89c.79,0,1.25-.05,1.36-.14.12-.1.19-.14.21-.14l.22-.45c0-.19-.01-.37-.03-.54s-.03-.48-.03-.93c0-.51,0-.89.03-1.12.02-.23.03-.83.03-1.79l-.03-.38c0-.08.01-.18.03-.29.02-.11.03-.29.03-.55l-.03-.19c.02-.19.04-.38.05-.58s.03-.32.05-.38c0-.21-.02-.35-.05-.42-.03-.06-.05-.14-.05-.22l.03-.29c0-.26.01-.42.03-.48.02-.06.03-.47.03-1.22s-.01-1.17-.03-1.28c-.02-.11-.03-.21-.03-.32l.03-.22v-.32c-.04-.26-.06-.48-.06-.67-.08-.11-.17-.23-.26-.38-.09-.15-.19-.29-.32-.42-.66-.64-1.01-1-1.06-1.09-.02,0-.1-.05-.22-.16-.13-.11-.24-.23-.32-.37-.09-.14-.15-.23-.19-.27v-.06s-.03,0-.03-.03v-.03c0-.21.11-.49.34-.83s.62-.8,1.19-1.36.95-1,1.14-1.3c-.06-.04-.1-.24-.1-.58,0-.36.02-.67.05-.91.03-.25.05-.59.05-1.04-.02-.11-.03-.23-.03-.38,0-.21.02-.44.06-.67v-.38c-.02-.08-.03-.18-.03-.29.04-.34.06-.68.06-1.03v-.48c-.02-.06-.04-.13-.06-.19-.02-.06-.03-.12-.03-.16l.03-.48.06-.35.03-.71s-.03-.15-.03-.34-.01-.36-.03-.55c-.02-.18-.03-.37-.03-.56,0-.17.01-.29.03-.35.02-.06.03-.19.03-.37s.01-.31.03-.4c0-.38-.01-.73-.03-1.03-.04-.56-.17-1.01-.38-1.38-.06-.08-.2-.19-.42-.32-.06-.06-.12-.13-.18-.19s-.11-.11-.18-.13c-.79-.13-1.61-.2-2.47-.22-.3,0-.47-.01-.51-.03l-.19.03c-.36,0-.65-.02-.87-.06l-.19-.03-.32.03s.03.17.03.38c0,.15.02.36.06.64v.32l-.03.13s.01.1.03.16c.02.06.03.16.03.29l-.16.8c0,.06.02.14.06.22v.61c0,.19.02.33.06.42.04.15.06.32.06.51v.9c-.02.17-.04.29-.06.37-.02.08-.03.2-.03.37l.03.45c0,.06-.01.13-.03.19-.02.06-.03.13-.03.19,0,.11.01.21.03.32.02.11.03.21.03.3s0,.21.02.34c.01.13.03.2.05.22,0,.26.02.46.06.61l-.03,1.57-.03.48c0,.96.03,1.66.1,2.08l-.06.38c0,.09.13.37.4.87.27.49.5.78.69.87.17.17.33.31.48.42.15.11.31.25.48.42.17.17.28.36.32.58,0,.41-.08.74-.22.99-.15.26-.35.54-.61.87-.64.66-1.1,1.29-1.38,1.89-.11.21-.16.48-.16.8,0,.15.02.28.06.4s.06.48.06,1.07l-.03.26c.02.11.04.2.06.27.02.08.03.16.03.24,0,.21-.02.35-.06.42l.06.64c0,.58-.01.89-.03.95-.02.05-.04.1-.05.13s-.03.05-.05.05c.04.06.07.13.1.19.02.06.03.19.03.38-.02.06-.03.17-.03.32l.03,1.41v.71c-.02.06-.03.18-.03.35,0,.38,0,.61.03.67.04.13.08.3.1.51,0,.32-.02.62-.06.9-.02.15-.03.3-.03.45,0,.21.02.48.06.8.04.45.14.67.29.67.92,0,1.47.01,1.67.03.19.02.59.03,1.19.03Z"/>
    <path class="cls-1" d="m307.28,70.52l-.19-.03h-.58l-.13.03c-.3,0-.49-.02-.58-.06-.47,0-.71-.01-.71-.03l.06-.06s.11-.06.26-.13c-.3.15-.77.22-1.41.22-.73,0-1.12-.03-1.19-.1-.41,0-.69.03-.87.1h-.32s-.1-.03-.16-.03l-1.09-.03-.93.03c-.11,0-.19,0-.26-.03-.06-.02-.14-.03-.22-.03l.16-.22s-.02-.03-.06-.03c-.08,0-.17.02-.26.05-.09.03-.17.07-.24.11-.07.04-.11.08-.11.1s-.21.03-.64.03c-.24,0-.37,0-.4-.02s-.05-.07-.06-.18c-.01-.11-.05-.19-.11-.26-.06-.06-.16-.1-.29-.1-.11,0-.22.03-.34.1s-.18.12-.18.16c0,.15-.02.23-.05.24-.03.01-.16.02-.37.02l-.71-.03c-.06-.02-.14-.03-.22-.03-.41,0-.65.02-.74.05-.09.03-.19.05-.32.05-.11,0-.25-.02-.42-.06-.09-.04-.21-.06-.38-.06-.13.02-.3.03-.51.03-.06.02-.42.03-1.06.03l.13-.1h-.06s-.12.03-.22.03c-.73,0-1.25-.22-1.57-.67-.19-.3-.29-.57-.29-.8,0-.06.01-.14.03-.22.02-.08.03-.17.03-.26,0-.17-.02-.35-.06-.53-.04-.18-.06-.36-.06-.53,0-.24.01-.48.03-.74.02-.26.03-.54.03-.87,0-.17.04-.26.13-.26l.16.03s.06-.02.06-.06c0-.06-.02-.16-.06-.29-.28-.47-.42-.85-.42-1.15l-.06-.54c0-.43-.01-.69-.03-.8-.02-.34-.03-.69-.03-1.06,0-.21.08-.41.26-.58h.13l-.13-.26c-.15-.15-.22-.3-.22-.45.02-.02.03-.08.03-.16-.02-.06-.05-.45-.1-1.15l-.06-1.03c0-.26.01-.42.03-.48v-.19c.02-.11.03-.32.03-.64-.02-.11-.03-.21-.03-.3s-.01-.19-.03-.27c-.08-.26-.13-.48-.13-.67.02-.06.04-.12.05-.16.01-.04.03-.12.05-.22.02-.11.03-.21.03-.32,0-.85-.13-1.73-.38-2.63-.11-.26-.27-.51-.48-.77l-1.06-1.09-.19-.16c-.64-.38-.99-.87-1.06-1.44,0-.19.17-.37.51-.54.21-.11.4-.23.54-.38l.42-.42c.58-.58.89-.96.93-1.15.08-.17.13-.27.13-.3s.03-.11.1-.24c0-.02.01-.06.03-.11s.03-.11.03-.18.02-.1.06-.1l.06.03c.11.21.17.32.19.32,0-.06-.05-.19-.16-.38-.11-.19-.19-.58-.26-1.15,0-.06.02-.13.05-.19.03-.06.05-.2.05-.42-.02-.06-.03-.14-.03-.22s.01-.17.03-.24c.02-.08.03-.16.03-.24-.06-.49-.1-1.01-.1-1.57,0-.17.01-.33.03-.48v-.9s-.05-.06-.1-.18c-.04-.12-.06-.23-.06-.34l.06-.29c0-.17-.01-.31-.03-.42-.02-.11-.03-.21-.03-.32s.01-.18.03-.22c0-.3-.01-.54-.03-.74,0-.62-.01-.98-.03-1.07-.02-.1-.03-.28-.03-.56l-.06-2.4c-.04-.15-.06-.27-.06-.35,0-.06.02-.1.06-.1.02.02.05.14.1.35,0-.08.02-.18.05-.29.03-.11.05-.25.05-.42,0-.11-.02-.16-.06-.16-.02,0-.05.02-.1.06-.06-.19-.1-.58-.1-1.15l-.03-.26.13.1h.03s.03-.05.03-.16c0-.15-.02-.36-.05-.64-.03-.28-.05-.64-.05-1.09,0-.13-.02-.27-.06-.42-.04-.15-.06-.34-.06-.58l.03-.29-.1-.13v-1.19c0-.47.33-.87.99-1.19l.06-.03s.03.01.03.03c.19,0,.75-.06,1.67-.19,0-.02-.08-.04-.22-.06.08,0,.15-.01.21-.03.05-.02.11-.03.18-.03l.19.1c.15.09.47.13.96.13,0-.02.06-.04.19-.06h1.7c.34.08,1.06.13,2.15.13l.54.03c.23,0,.46-.02.67-.06.26,0,.79.06,1.6.19l.29-.06c.73,0,1.39.03,1.99.1.17,0,.41.02.71.06h.26l.42.19-.16-.16s.04-.05.11-.08.23-.05.46-.05l-.03-.06.55.03c.49.06.76.1.8.11s.16.02.35.02l.77.06c.28.06.67.18,1.19.35-.04-.02-.15-.12-.32-.29l.77.26s-.14-.11-.29-.26l.19.06.16-.06.9-.06c.13,0,.26.03.38.1.13,0,.35.24.67.71.19.28.29.58.29.9v1.09c-.04.19-.06.4-.06.61l.03.51v.83c-.04.17-.06.43-.06.77l.1.8c0,.43-.1.9-.29,1.41-.24.45-.45.73-.64.83-.38.19-.76.29-1.12.29l-.8-.1c-.17-.02-.42-.03-.74-.03-.21.02-.46.03-.74.03l-.32-.03-.83.03c-.6-.02-.92-.04-.96-.06-.83,0-1.34-.02-1.52-.05s-.55-.05-1.11-.05c-.11-.02-.19-.05-.26-.1-.06-.04-.1-.08-.1-.13l.06-.19s-.01-.03-.03-.03l-.19-.06c-.21-.11-.4-.16-.54-.16s-.27.03-.37.08c-.1.05-.14.1-.14.14l.03.03c.11.08.21.13.32.13l.38.03s-.05.06-.16.11c-.11.05-.27.08-.5.08s-.34.03-.34.1c0,.15-.01.29-.03.42-.06.24-.14.35-.22.35h-.03l-.03.06c.02.06.06.16.13.29.06.13.1.24.11.32.01.09.03.16.05.22,0,.09-.01.17-.03.26-.02.09-.03.19-.03.32,0,.15.02.32.06.5s.07.34.1.46.03.28.03.45c-.11.58-.16,1.13-.16,1.67,0,.04.01.09.03.14.02.05.04.13.06.22.02.1.04.16.05.19s.04.13.08.3l-.1.13c.02.17.03.36.03.58-.02.13-.03.26-.03.38s-.02.19-.06.19l-.06-.1s.01.1.03.18.04.19.05.34c.01.15.03.38.05.67v.58l-.03.22c0,.71,0,1.19.03,1.44.02.26.05.41.1.46s.13.08.26.08l.64.1c.13-.06.56-.1,1.28-.1.43.04.94.06,1.54.06.6.09,1.13.13,1.6.13.26,0,.47.04.64.13.34.21.55.42.64.61.08.08.14.3.16.64,0,.19-.01.33-.03.4-.02.08-.03.17-.03.29s-.02.23-.05.34c-.03.11-.05.22-.05.35,0,.06.01.12.03.18.02.05.03.48.03,1.27s-.01,1.25-.03,1.3c-.02.05-.04.22-.06.5-.08.51-.44.84-1.06.99-.34.11-.87.16-1.57.16l-.96-.1-.71-.03c-.24.02-.54.03-.93.03l-.54-.03c-.51,0-.77.22-.77.67,0,.19.01.33.03.42v.58s.04.06.06.11c.02.05.03.13.03.24-.02.08-.03.22-.03.42-.02.09-.03.2-.03.35-.04.04-.06.43-.06,1.15.02.09.03.33.03.74l-.03,1.03c0,.66.01,1.06.03,1.2.02.14.03.26.03.37,0,.24-.01.46-.03.67-.02.21-.03.44-.03.67,0,.11.02.2.05.27s.05.25.05.53l-.13.48.03.19v.22h5.06c.26.08.85.13,1.8.13.41,0,.77-.03,1.09-.1h.19c.08.04.27.06.54.06s.49.08.64.22c.19.08.4.44.61,1.06l.03.26-.03.96c-.04.41-.06.9-.06,1.47,0,.13.01.21.03.26l-.03.32c0,.19.01.37.03.54,0,.96-.12,1.56-.35,1.8-.26.34-.67.51-1.25.51Zm-16.22-45.17l.32-.16h-.16l-.16.16Zm12.05,37.79l.22-.03-.1-.06-.22.03.1.06Zm5.39,4.17s.04-.05.06-.16c.11-.49.16-.96.16-1.41,0-.15.03-.24.08-.27.05-.03.09-.06.11-.08l-.22-.16c-.17,0-.26.06-.27.19-.01.13-.02.28-.02.45,0,.96.03,1.44.1,1.44Z"/>
  </g>
  <g>
    <path class="cls-1" d="m152.62,138.27c-.16,0-.29-.01-.41-.03-1.09,0-1.77-.02-2.04-.07-.45-.05-.81-.23-1.05-.54-.23-.39-.34-.76-.34-1.12s-.01-.91-.03-1.63c-.02-.73-.09-2.44-.2-5.14l-.03-.71c0-.5-.03-.87-.1-1.12,0-.45.01-.71.03-.77.02-.06.03-.14.03-.25,0-.14-.03-.42-.1-.85l.03-.48c0-.59-.06-1.05-.17-1.4v-3.3c-.07-.16-.1-.56-.1-1.19l.03-.58c0-.5-.03-.8-.1-.92l-.1-.44c.04-.07.07-.4.07-.99,0-.75-.02-1.33-.07-1.75-.05-.42-.22-.8-.51-1.14l-.82-.82c-.59-.57-.94-.96-1.05-1.19-.05-.02-.07-.05-.07-.07s-.01-.06-.03-.1c0-.14.02-.31.07-.51.18-.43.5-.97.95-1.63.45-.66.84-1.33,1.16-2.01,0-.04-.02-.11-.05-.19-.03-.08-.05-.24-.05-.49,0-.27.01-.47.03-.6.02-.12.03-.23.03-.32,0-.5-.02-1-.07-1.5-.02-.14-.03-.33-.03-.58,0-.52.01-.94.03-1.26l.03-.24c0-.25-.03-.43-.08-.53-.06-.1-.08-.49-.08-1.17l.14-.54c-.09-.14-.15-.28-.17-.44,0-.36-.02-.68-.07-.95,0-.32-.01-.5-.03-.54v-.17c-.02-.07-.03-.21-.03-.44l.07-.2c.09-.16.18-.24.27-.24s.14-.01.14-.03v-.03s-.09-.11-.2-.2c-.23-.2-.34-.42-.34-.65v-.34c.02-.07.03-.16.03-.27,0-.09-.01-.16-.03-.2,0-1.18.1-2.21.31-3.09.2-.88.51-1.88.92-2.99l.14-.31c.16-.27.33-.5.51-.68.18-.18.38-.36.61-.54.23-.18.46-.38.71-.61.79-.59,1.54-1.08,2.25-1.46.97-.48,1.97-.77,2.99-.88.57-.04,1.18-.07,1.84-.07.04,0,.1-.02.15-.07.06-.05.34-.09.87-.14h1.53c.23,0,.37-.02.42-.05s.11-.06.15-.08c.09,0,.19.01.29.03.1.02.32.03.66.03.39-.02.59-.05.61-.07l.85-.03.54.14.48-.14c.11,0,.19-.01.24-.03,1.09,0,1.71.02,1.85.05.15.03.34.07.58.12.24.04.53.09.87.14l1.05.31c3.06,1.18,4.93,2.88,5.61,5.1.25.84.43,1.56.54,2.18.04.25.09.39.14.43.04.03.07.13.07.29,0,.07-.08.23-.24.48-.05.09-.07.31-.07.65,0,.5-.05.91-.14,1.22v.03l.14.03v.07s.03.16.03.34.01.29.03.32c.02.03.03.07.03.12l-.07,1.43c0,.09,0,.16.02.2.01.05.02.17.02.37v.48c-.07.36-.1.73-.1,1.09s-.03.61-.1.75-.1.22-.1.24l-.07.65.03.27c.09.23.14.48.14.75l-.07.38c0,.11.01.2.03.27.02.07.03.15.03.24,0,.07-.01.12-.03.17-.02.05-.03.09-.03.14s.01.1.03.15c.02.06.03.12.03.19l-.1.51c-.02.07-.03.17-.03.31l.03.31c0,.18-.02.35-.07.51,0,.27-.01.48-.03.61,0,.27.01.51.03.71.04.27.19.61.44,1.02-.09,3.49-.21,5.37-.36,5.63s-.23.4-.24.42c-.01.02-.02.07-.03.15s-.03.23-.05.46c-.07.39-.1.82-.1,1.29-.02.93-.07,1.47-.14,1.63,0,.84-.03,1.34-.1,1.5-.02.02-.07.03-.14.03s-.1.01-.1.03c-.16.25-.24.65-.24,1.19,0,.14.02.2.07.2h.03c.09-.09.2-.14.34-.14l.07.03c0,.16-.03.54-.1,1.16,0,.04.01.08.03.1.02.02.03.06.03.1,0,.36-.02.72-.05,1.07-.03.35-.05.71-.05,1.07l.03.68c0,.25-.08.54-.24.88l-.1.41s0,.07.02.07.04.03.08.1c.04.07.08.15.1.24.02.09.03.18.03.25v.19c0,.09-.01.17-.03.22-.02.06-.03.15-.03.29.02.11.03.27.03.48,0,.48-.05.87-.14,1.19l-.07.65c.02.11.04.22.05.32.01.1.02.35.02.73.02.16.03.33.03.51,0,.43-.03.7-.1.82v.99l.03.41c0,.34-.2.67-.61.99-.39.2-.9.34-1.53.41-.2.02-1.64.03-4.32.03-.09.02-.22.03-.38.03h-.61c-.27.02-.56.01-.85-.03-.2,0-.43-.07-.68-.2-.39-.2-.67-.45-.85-.75-.09-.14-.14-.36-.14-.68.02-.07.03-.46.03-1.19.02-.07.03-.28.03-.65.02-.07.06-.12.1-.15.04-.03.09-.07.14-.12.04-.16.07-.32.07-.48,0-.02-.01-.03-.03-.03-.09.14-.14.22-.15.25-.01.03-.03.08-.05.15-.07-.11-.1-.26-.1-.44l.07-1.05-.03-.48c-.02-.11-.03-.25-.03-.41.04-.29.07-.6.07-.92.02-.07.03-.25.03-.54,0-.14-.02-.25-.05-.36-.03-.1-.05-.2-.05-.29,0-.07.01-.14.03-.22.02-.08.03-.22.03-.42l.03-1.16-.07-.82c0-.16.01-.31.03-.44.02-.14.03-.34.03-.61v-.75l.03-.31-.03-.75c0-.11.01-.19.03-.24s.06-.17.12-.37.16-.56.32-1.05v.03c-.07.07-.2.17-.41.31-.09-.48-.2-.74-.32-.78-.12-.04-.28-.07-.46-.07l-.92-.17.2.2-.07.07s-.09-.02-.2-.07c-.11-.04-.23-.08-.34-.12s-.25-.09-.41-.17c-.16-.08-.3-.13-.41-.15l.37.34s-.01.03-.03.03-.06,0-.1-.02c-.04-.01-.1-.02-.17-.02h-.25c-.06,0-.19.02-.39.05s-.42.07-.65.12c-.23.05-.44.08-.63.12s-.31.06-.36.08c-.05.02-.1.05-.17.07,0,.02-.04.11-.14.25s-.18.28-.27.39c-.09.11-.14.19-.14.24l.03.07.1-.07c.02-.09.08-.14.17-.14.14,0,.2.17.2.51,0,.27-.05.49-.14.65v.24s.06-.03.1-.03.07.14.07.41c0,.11-.02.24-.07.37l-.03.92.07.44v.75c.07,1.27.1,2.54.1,3.81,0,.27-.01.52-.03.75s-.03.46-.03.71c.09,3.99.14,6.13.14,6.43.07.75.12,1.14.17,1.19s.07.08.07.1c0,.14-.11.31-.34.51-.41.38-.88.58-1.43.58l-1.09-.03c-.29,0-.51.01-.65.03-.23,0-.39-.01-.48-.03,0-.02-.02-.03-.07-.03l-.54.1h-1.19c-.09.02-.19.03-.31.03Zm6.8-27.14c.14,0,.26-.02.37-.07h.24c.07.02.15.03.24.03.18,0,.35-.02.51-.05.16-.03.42-.05.78-.05.29,0,.47.01.53.03s.12.03.19.03l1.29-.1s.07-.05.08-.15c.01-.1.06-.2.15-.29.09-.09.18-.14.25-.14s.12-.01.12-.03-.02-.07-.05-.15c-.03-.08-.06-.14-.08-.19l-.07-.07-.17.31-.07-.48c0-.23-.01-.39-.03-.48v-.68c.02-.29.03-.75.03-1.36,0-.38.01-.61.03-.66.02-.06.03-.4.03-1.04l-.07-1.63c0-.75.02-1.14.05-1.19.03-.04.05-.09.05-.14l-.07-.1c0-.23.01-.4.03-.51.09-.93.14-1.67.14-2.21,0-.09-.01-.18-.03-.27-.02-.09-.03-.44-.03-1.05.04-.34.07-.58.07-.71-.05-.32-.07-.57-.07-.75.02-.14.03-.58.03-1.33,0-.95-.14-1.56-.41-1.84-.14-.16-.29-.29-.48-.41-.05,0-.17-.02-.37-.05s-.45-.06-.73-.08c-.28-.02-.49-.04-.63-.07-.14-.02-.26-.03-.37-.03-.11.02-.23.04-.36.05-.12.01-.27.03-.44.07-.17.03-.38.06-.63.08-.73.14-1.21.61-1.46,1.43-.09.29-.14.6-.14.92.02.07.03.18.03.34,0,.23-.01.45-.03.68-.02.23-.03.54-.03.95,0,.27.02.44.05.49s.05.66.05,1.82l.1.95s-.01.11-.03.19c-.02.08-.05.27-.07.56,0,.57-.03,1.1-.1,1.6,0,.18.01.27.03.27.09.14.14.33.14.58,0,.39,0,.63-.02.73-.01.1-.02.18-.02.22s0,.09.02.14c.01.05.02.1.02.17,0,.09-.01.19-.03.29-.02.1-.03.2-.03.29s.02.17.07.24c.04.07.07.53.07,1.39.02.18.03.43.03.75,0,.25-.03.5-.1.75v.44c.04.34.07.59.07.75,0,.41.03.64.08.68.06.05.17.07.36.07.45,0,.75.02.88.07Zm.51,7.52c.14,0,.2-.03.2-.1-.02-.07-.14-.12-.34-.17l-.31-.1s-.03.01-.03.03l.03.1c.11.16.26.24.44.24Zm3.57-.44h.03c.07,0,.12-.06.15-.17s.06-.19.08-.24l.03-.07s-.07.04-.14.12c-.07.08-.11.14-.14.19-.02.05-.03.08-.03.1v.07Z"/>
    <path class="cls-1" d="m194.59,132.15c-.14,0-.36-.03-.66-.08-.31-.06-.62-.08-.94-.08-.14.02-.2.04-.2.07l.03.07c-.09-.02-1.03-.03-2.82-.03-.39,0-.58-.03-.58-.1l.24-.17h-.48l-.58.14s.01.03.03.03l-.1.07c-.75,0-1.21-.01-1.38-.03-.17-.02-.28-.03-.32-.03.04-.05.08-.11.1-.19.02-.08.07-.14.14-.19-.64.23-1.05.35-1.26.38-.36.02-1.37.03-3.03.03-.61,0-1.08-.02-1.39-.07-.52,0-.83.01-.94.03-.1.02-.21.03-.32.03s-.27-.02-.48-.07c-.61-.07-1.05-.28-1.33-.65-.27-.36-.41-.58-.41-.65,0-.04,0-.08.02-.12.01-.03.04-.1.08-.2.04-.1.07-.21.08-.32.01-.11.03-.19.05-.24,0-.23-.02-.52-.07-.88-.07-.25-.1-.49-.1-.71l.07-.71c0-.2-.03-.48-.1-.82-.09-.54-.14-.87-.14-.99l.1-.65c-.07-.14-.1-.83-.1-2.07-.02-.18-.03-.44-.03-.78,0-.27.03-.41.1-.41.09,0,.15.05.17.14l.07.03-.07-.14c-.23-.73-.34-1.44-.34-2.14-.05-.09-.07-.31-.07-.65,0-.16.01-.28.03-.37.02-.09.03-.15.03-.17l-.03-.31c-.09-.09-.14-.34-.14-.75,0-.27.02-.45.07-.54-.07-.27-.1-.59-.1-.95,0-.59-.02-1-.07-1.22-.07-.45-.12-.73-.17-.82-.09-.27-.48-.77-1.17-1.48-.69-.71-1.17-1.15-1.45-1.31-.11-.11-.17-.32-.17-.61,0-.36.12-.63.37-.82.41-.54.85-1.05,1.33-1.53.09-.07.17-.14.25-.22.08-.08.15-.12.2-.14s.08-.06.08-.14.06-.22.17-.42.18-.35.19-.44c.01-.09.02-.18.02-.27,0-.43.04-.67.12-.73s.12-.13.12-.22-.03-.17-.08-.24c-.06-.07-.08-.25-.08-.54-.07-.07-.1-.41-.1-1.02-.02-.04-.03-.1-.03-.17,0-.29.02-.56.07-.78v-.58s-.03-.19-.03-.44c0-.14-.02-.25-.05-.36-.03-.1-.05-.3-.05-.59,0-.59.01-.99.03-1.19v-1.36c-.05-.11-.07-.24-.07-.37,0-.09.01-.16.03-.2l-.03-.24.03-.68c0-.29-.01-.48-.03-.54-.05-.2-.07-.4-.07-.58v-1.09c-.02-.14-.03-.28-.03-.44v-1.09c-.02-.11-.03-.21-.03-.29s-.01-.15-.03-.22c-.02-.07-.03-.14-.03-.2,0-.04.01-.1.03-.15s.03-.15.03-.29v-.82c-.07-.45-.1-.75-.1-.88,0-.34.01-.53.03-.58,0-.11-.01-.21-.03-.31,0-.73.18-1.2.54-1.43.36-.23.87-.34,1.53-.34.18,0,.37.01.56.03.19.02.46.03.8.03.18,0,.36.03.54.1.18.07.36.1.54.1.25,0,.37-.04.37-.14,0-.02-.02-.04-.07-.07l.71.24-.2-.17c.11,0,.2-.01.27-.03h.24c.29.14.63.2,1.02.2,0,.02-.01.03-.03.03-.04,0-.07-.01-.07-.03,0-.11.15-.17.44-.17.18,0,.36.02.53.05.17.03.35.05.53.05l.27-.03c.18,0,.5.08.95.24-.11-.07-.17-.12-.17-.17h.2s.14.03.29.03.28.01.39.03h.31c.09.02.63.03,1.63.03.29.05.63.07,1.02.07.57,0,.9-.01.99-.03.16,0,.46.03.92.1-.04.02-.08.06-.12.12-.03.06-.07.1-.12.12.16-.07.33-.14.53-.2.19-.07.41-.1.66-.1.09,0,.15.01.17.03.02.02.1.03.24.03l.68.17s.02-.03.07-.03c.32,0,.59.03.82.1.29.14.52.2.68.2s.37.03.63.08.53.12.8.2c.27.08.53.16.78.24.25.08.44.15.58.22.66.25,1.52.79,2.58,1.63.04.07.11.14.2.2.16.16.28.32.37.48.27.41.5.73.68.95.34.59.58,1.06.71,1.41.14.35.23.79.27,1.31.04.02.07.05.08.09.01.03.04.11.08.22.04.2.07.37.08.49.01.12.03.21.05.25l-.07.54c-.04.07-.07.16-.07.27,0,.16.02.27.07.34l.03.34v2.04c-.02.32-.04.53-.07.63-.02.1-.07.15-.14.15-.02,0-.03-.01-.03-.03h-.03s-.03.02-.03.07c0,.07.03.18.08.34.06.16.1.31.12.44,0,.32-.01.54-.03.66-.02.12-.03.25-.03.39,0,.43.01.71.03.85,0,.5-.02.85-.07,1.04-.04.19-.07.39-.07.59l-.1-.14c.09.18.14.34.14.48.02.02.03.06.03.1s-.01.11-.03.19c-.02.08-.03.22-.03.42-.02.11-.03.26-.03.44,0,.86-.41,1.79-1.22,2.79-.43.57-.95.98-1.56,1.22l-.31.17c0,.11.44.46,1.33,1.05.73.59,1.29,1.16,1.7,1.7.23.36.42.87.58,1.53,0,.14.02.36.07.68,0,.23-.02.39-.05.49-.03.1-.05.19-.05.26l.07.34c0,.11-.02.22-.05.32-.03.1-.05.37-.05.8,0,.25.01.41.03.48l-.07,1.77s-.03-.36-.03-1.09l-.03-1.02.03-.41c0-.07-.02-.1-.07-.1-.02,0-.06.06-.1.17-.36.93-.6,1.95-.71,3.06,0,.16.06.28.17.37.11.09.23.14.34.14l.34-.03.03.27v.54l-.1,1.26c0,.34-.02.69-.07,1.05-.05.36-.07.71-.07,1.05,0,.11.01.2.03.27,0,.48-.07.9-.2,1.26-.5,1.34-1.1,2.37-1.8,3.1-.91.93-1.89,1.45-2.96,1.56-.25.05-.43.09-.54.14-.34.14-.77.2-1.29.2-.41,0-.61.01-.61.03s.04.05.12.07c.08.02.12.06.12.1,0,.09-.45.14-1.36.14Zm-5.34-25.04c.54-.16.9-.25,1.05-.27.25,0,.46.02.65.07.02-.02.09-.03.2-.03s.34-.15.68-.44c.27-.18.45-.32.54-.41.05-.09.07-.18.08-.27.01-.09.06-.19.14-.29.08-.1.12-.22.12-.36,0-.27-.01-.43-.03-.48h-.07c0-.27.01-.48.03-.61v-1.12c0-.14.03-.34.1-.61l.03-.37c-.07-.2-.1-.65-.1-1.33.02-.59.03-.93.03-1.02s.01-.18.03-.27c-.02-.14-.03-.33-.03-.58l.03-.34c0-.09-.01-.18-.03-.26-.02-.08-.03-.16-.03-.25l.03-.27c-.09-.11-.14-.27-.14-.48-.02-.09-.06-.18-.1-.25-.05-.08-.14-.26-.27-.53v-.03h-.07l-.34-.24c-.18-.04-.61-.12-1.29-.24l-.82-.07c-.54-.05-.93-.07-1.16-.07-.04.02-.14.04-.29.05-.15.01-.38.02-.7.02,0,.39.01.63.03.75s.03.26.03.44-.02.31-.07.39c-.04.08-.07.24-.07.49l.03.2c0,.18.01.31.03.37.02.07.05.27.07.61,0,.73-.01,1.14-.03,1.24-.02.1-.03.21-.03.32-.04-.05-.11-.09-.2-.14-.09-.04-.16-.1-.2-.17.16.27.26.48.31.61.04.14.09.26.14.37l.07.37c-.02.09-.03.2-.03.34,0,.16.02.35.07.58,0,.82-.02,1.25-.05,1.31-.03.06-.05.28-.05.66,0,.61.01,1.04.03,1.29,0,.68.11,1.02.34,1.02h.51c.07.02.23.03.48.03.11.02.31.03.58.03l-.27.2Zm3.33,17.55c.11-.09.23-.18.36-.25.12-.08.19-.2.19-.36s0-.34.02-.54.03-.37.05-.51c0-.95.01-1.54.03-1.77,0-.52-.01-.82-.03-.88-.02-.07-.03-.33-.03-.78,0-.11.01-.22.03-.32.02-.1.03-.32.03-.66s.01-.66.03-.95v-1.19l-.03-.65-.07-.37c-.23-.27-.48-.53-.75-.78l-.54-.17c-.2-.02-.46-.07-.77-.14-.31-.07-.62-.1-.94-.1-.16,0-.24-.03-.24-.1l.03-.03-.88.14-.07-.07c.09,0,.22-.11.37-.34-.27.27-.73.41-1.36.41-.05.02-.09.04-.14.05-.05.01-.08.04-.1.08-.02.05-.03.09-.03.14,0,.61.02.99.05,1.14.03.15.05.28.05.39l-.03.41c0,.93.01,1.46.03,1.6v.31c-.02.07-.04.13-.05.19-.01.06-.02.13-.02.22,0,.2.03.41.1.61,0,.23-.01.37-.03.43-.02.06-.03.18-.03.36,0,.2.01.35.03.43.02.08.03.28.03.59,0,.57-.03.91-.1,1.02,0,.07.02.13.05.19.03.06.05.2.05.42,0,.29-.01.52-.03.66-.02.15-.03.33-.03.56,0,.16.01.27.03.34v.17c.04.07.58.1,1.6.1h1.12c.11-.02.25-.03.41-.03.02-.02.14-.03.34-.03.29,0,.5.01.63.03.12.02.25.03.37.03s.21.01.25.03Z"/>
    <path class="cls-1" d="m224.73,133.27l-.2-.03h-.61l-.14.03c-.32,0-.52-.02-.61-.07-.5,0-.75-.01-.75-.03l.07-.07s.11-.07.27-.14c-.32.16-.82.24-1.5.24-.77,0-1.19-.03-1.26-.1-.43,0-.74.03-.92.1h-.34s-.1-.03-.17-.03l-1.16-.03-.99.03c-.11,0-.2-.01-.27-.03-.07-.02-.15-.03-.24-.03l.17-.24s-.02-.03-.07-.03c-.09,0-.18.02-.27.05-.09.03-.18.07-.25.12-.08.04-.12.08-.12.1s-.23.03-.68.03c-.25,0-.39,0-.43-.02-.03-.01-.06-.07-.07-.19-.01-.11-.05-.2-.12-.27-.07-.07-.17-.1-.31-.1-.11,0-.23.03-.36.1-.12.07-.19.12-.19.17,0,.16-.02.24-.05.26-.03.01-.17.02-.39.02l-.75-.03c-.07-.02-.15-.03-.24-.03-.43,0-.69.02-.78.05-.09.03-.2.05-.34.05-.11,0-.26-.02-.44-.07-.09-.04-.23-.07-.41-.07-.14.02-.32.03-.54.03-.07.02-.44.03-1.12.03l.14-.1h-.07s-.12.03-.24.03c-.77,0-1.33-.24-1.67-.71-.2-.32-.31-.6-.31-.85,0-.07.01-.15.03-.24.02-.09.03-.18.03-.27,0-.18-.02-.37-.07-.56-.05-.19-.07-.38-.07-.56,0-.25.01-.51.03-.78.02-.27.03-.58.03-.92,0-.18.04-.27.14-.27l.17.03s.07-.02.07-.07c0-.07-.02-.17-.07-.31-.29-.5-.44-.91-.44-1.22l-.07-.58c0-.45-.01-.74-.03-.85-.02-.36-.03-.74-.03-1.12,0-.23.09-.43.27-.61h.14l-.14-.27c-.16-.16-.24-.32-.24-.48.02-.02.03-.08.03-.17-.02-.07-.06-.48-.1-1.22l-.07-1.09c0-.27.01-.44.03-.51v-.2c.02-.11.03-.34.03-.68-.02-.11-.03-.22-.03-.32s-.01-.2-.03-.29c-.09-.27-.14-.51-.14-.71.02-.07.04-.12.05-.17.01-.04.03-.12.05-.24.02-.11.03-.23.03-.34,0-.91-.14-1.84-.41-2.79-.11-.27-.28-.54-.51-.82l-1.12-1.16-.2-.17c-.68-.41-1.05-.92-1.12-1.53,0-.2.18-.4.54-.58.23-.11.42-.25.58-.41l.44-.44c.61-.61.94-1.02.99-1.22.09-.18.14-.29.14-.32s.03-.12.1-.25c0-.02.01-.06.03-.12.02-.06.03-.12.03-.19s.02-.1.07-.1l.07.03c.11.23.18.34.2.34,0-.07-.06-.2-.17-.41s-.2-.61-.27-1.22c0-.07.02-.14.05-.2.03-.07.05-.21.05-.44-.02-.07-.03-.15-.03-.24s.01-.18.03-.25.03-.17.03-.26c-.07-.52-.1-1.08-.1-1.67,0-.18.01-.35.03-.51v-.95s-.06-.06-.1-.19c-.05-.12-.07-.24-.07-.36l.07-.31c0-.18-.01-.33-.03-.44-.02-.11-.03-.23-.03-.34s.01-.19.03-.24c0-.32-.01-.58-.03-.78,0-.66-.01-1.04-.03-1.14-.02-.1-.03-.3-.03-.59l-.07-2.55c-.05-.16-.07-.28-.07-.37,0-.07.02-.1.07-.1.02.02.06.15.1.37,0-.09.02-.19.05-.31.03-.11.05-.26.05-.44,0-.11-.02-.17-.07-.17-.02,0-.06.02-.1.07-.07-.2-.1-.61-.1-1.22l-.03-.27.14.1h.03s.03-.06.03-.17c0-.16-.02-.39-.05-.68-.03-.29-.05-.68-.05-1.16,0-.14-.02-.28-.07-.44-.05-.16-.07-.36-.07-.61l.03-.31-.1-.14v-1.26c0-.5.35-.92,1.05-1.26l.07-.03s.03.01.03.03c.2,0,.79-.07,1.77-.2,0-.02-.08-.04-.24-.07.09,0,.17-.01.22-.03s.12-.03.19-.03l.2.1c.16.09.5.14,1.02.14,0-.02.07-.05.2-.07h1.8c.36.09,1.12.14,2.28.14l.58.03c.25,0,.49-.02.71-.07.27,0,.84.07,1.7.2l.31-.07c.77,0,1.47.03,2.11.1.18,0,.43.02.75.07h.27l.44.2-.17-.17s.04-.05.12-.08c.08-.03.24-.05.49-.05l-.03-.07.58.03c.52.07.8.11.85.12.04.01.17.02.37.02l.82.07c.29.07.71.19,1.26.38-.05-.02-.16-.12-.34-.31l.82.27s-.15-.11-.31-.27l.2.07.17-.07.95-.07c.14,0,.27.03.41.1.14,0,.37.25.71.75.2.29.31.61.31.95v1.16c-.05.2-.07.42-.07.65l.03.54v.88c-.05.18-.07.45-.07.82l.1.85c0,.45-.1.95-.31,1.5-.25.48-.48.77-.68.88-.41.2-.81.31-1.19.31l-.85-.1c-.18-.02-.44-.03-.78-.03-.23.02-.49.03-.78.03l-.34-.03-.88.03c-.63-.02-.98-.04-1.02-.07-.88,0-1.42-.02-1.62-.05-.19-.03-.58-.05-1.17-.05-.11-.02-.2-.06-.27-.1-.07-.05-.1-.09-.1-.14l.07-.2s-.01-.03-.03-.03l-.2-.07c-.23-.11-.42-.17-.58-.17s-.29.03-.39.08c-.1.06-.15.11-.15.15l.03.03c.11.09.23.14.34.14l.41.03s-.06.06-.17.12c-.11.06-.29.09-.53.09s-.36.03-.36.1c0,.16-.01.31-.03.44-.07.25-.15.37-.24.37h-.03l-.03.07c.02.07.07.17.14.31.07.14.11.25.12.34.01.09.03.17.05.24,0,.09-.01.18-.03.27-.02.09-.03.2-.03.34,0,.16.02.33.07.53.04.19.08.36.1.49s.03.29.03.48c-.11.61-.17,1.2-.17,1.77,0,.05.01.1.03.15.02.06.04.14.07.24.02.1.04.17.05.2.01.03.04.14.08.32l-.1.14c.02.18.03.39.03.61-.02.14-.03.27-.03.41s-.02.2-.07.2l-.07-.1s.01.11.03.19c.02.08.04.2.05.36.01.16.03.4.05.71v.61l-.03.24c0,.75.01,1.26.03,1.53s.06.44.1.49c.04.06.14.08.27.08l.68.1c.14-.07.59-.1,1.36-.1.45.05,1,.07,1.63.07.63.09,1.2.14,1.7.14.27,0,.5.05.68.14.36.23.59.44.68.65.09.09.15.32.17.68,0,.2-.01.35-.03.42-.02.08-.03.18-.03.31s-.02.24-.05.36c-.03.11-.05.24-.05.38,0,.07.01.13.03.19.02.06.03.5.03,1.34s-.01,1.32-.03,1.38c-.02.06-.05.23-.07.53-.09.54-.46.9-1.12,1.05-.36.11-.92.17-1.67.17l-1.02-.1-.75-.03c-.25.02-.58.03-.99.03l-.58-.03c-.54,0-.82.24-.82.71,0,.2.01.35.03.44v.61s.05.06.07.12c.02.06.03.14.03.26-.02.09-.03.24-.03.44-.02.09-.03.22-.03.37-.05.05-.07.45-.07,1.22.02.09.03.35.03.78l-.03,1.09c0,.7.01,1.13.03,1.28.02.15.03.28.03.39,0,.25-.01.49-.03.71-.02.23-.03.46-.03.71,0,.11.02.21.05.29s.05.27.05.56l-.14.51.03.2v.24h5.37c.27.09.91.14,1.9.14.43,0,.82-.03,1.16-.1h.2c.09.04.28.07.58.07s.52.08.68.24c.2.09.42.46.65,1.12l.03.27-.03,1.02c-.05.43-.07.95-.07,1.56,0,.14.01.23.03.27l-.03.34c0,.2.01.4.03.58,0,1.02-.12,1.66-.37,1.91-.27.36-.71.54-1.33.54Zm-17.21-47.93l.34-.17h-.17l-.17.17Zm12.79,40.1l.24-.03-.1-.07-.24.03.1.07Zm5.71,4.42s.05-.06.07-.17c.11-.52.17-1.02.17-1.5,0-.16.03-.25.08-.29s.1-.06.12-.08l-.24-.17c-.18,0-.28.07-.29.2s-.02.29-.02.48c0,1.02.03,1.53.1,1.53Z"/>
    <path class="cls-1" d="m244.8,135.52l-.65-.07h-1.29c-.39-.04-.78-.07-1.19-.07-.34,0-.57.01-.7.03s-.5.03-1.14.03c-.25,0-.52-.01-.8-.03-.28-.02-1.41-.03-3.38-.03-.23,0-.38-.01-.46-.03-.08-.02-.36-.03-.83-.03-.2.02-.74.03-1.6.03-.91,0-1.47-.01-1.7-.03-.57-.04-.94-.18-1.12-.41-.14-.14-.2-.23-.2-.27l-.1-.95c0-.25.03-.37.1-.37l.1.17-.07-.2c-.11-.29-.17-.6-.17-.92-.07-.34-.1-.58-.1-.71,0-.09.01-.19.03-.31.02-.11.03-.32.03-.61-.02-.07-.03-.15-.03-.24.02-.07.03-.21.03-.44-.02-.04-.03-.08-.03-.12s-.01-.08-.03-.15c-.02-.07-.05-.16-.07-.27s-.02-.23,0-.34v-.31l.17.27h.03c0-.09-.08-.37-.24-.85-.02-.07-.03-.15-.03-.24l.03-.41c0-.52-.01-.88-.03-1.09-.02-.2-.03-.49-.03-.85,0-.2.01-.34.03-.41l-.03-1.02c-.02-.2-.03-.51-.03-.92l-.03-.44-.07-1.43c-.02-.18-.03-.56-.03-1.12l-.03-.75.03-.34c0-.16-.01-.31-.03-.46-.02-.15-.03-.99-.03-2.53-.02-.05-.06-.12-.1-.22-.04-.1-.11-.2-.19-.29-.08-.09-.25-.34-.53-.75-.16-.16-.28-.31-.36-.44s-.18-.28-.31-.42c-.12-.15-.24-.27-.34-.37-.1-.1-.24-.23-.42-.38-.18-.15-.31-.25-.37-.32-.16-.11-.28-.28-.36-.49-.08-.22-.12-.45-.12-.7.07-.2.12-.33.15-.39s.3-.28.8-.66c.86-.75,1.38-1.35,1.56-1.8.09-.18.17-.5.24-.95,0-.72-.02-1.24-.07-1.55-.05-.31-.07-.62-.07-.94,0-.07-.01-.13-.03-.19-.02-.06-.03-.28-.03-.66,0-.45.02-.74.05-.87s.05-.27.05-.43c0-.18-.02-.5-.07-.95-.04-.23-.07-.58-.07-1.05l-.1-.71.03-.68c0-.23-.01-.38-.03-.48s-.03-.18-.03-.27c0-.14.01-.26.03-.37s.03-.23.03-.34c0-.2-.01-.4-.03-.58-.02-.18-.03-.41-.03-.68.05-.25.08-.37.1-.37l.14.03s.03-.02.03-.07c-.02-.04-.07-.11-.14-.2-.07-.09-.12-.18-.17-.27-.05-.09-.07-.16-.07-.2,0-.02.01-.04.03-.07.02-.02.03-.11.03-.27,0-.34-.02-.67-.07-.99-.05-.32-.07-.62-.07-.92,0-.68.01-1.05.03-1.12l.03-.54c0-.2-.02-.46-.07-.78.05.02.08.03.1.03s.06.02.1.07c.09,0,.14-.02.14-.07,0-.11-.03-.25-.08-.41-.06-.16-.1-.29-.14-.41-.03-.11-.07-.23-.12-.34v.17l-.07-.41c0-.18-.02-.36-.05-.54-.03-.18-.05-.37-.05-.58,0-.25.06-.46.19-.63.12-.17.28-.31.46-.43.27-.18.57-.29.88-.32.32-.03.5-.06.54-.08.04,0,.12.03.24.08.11.06.23.12.34.2.11.08.21.12.31.12.05,0,.09-.02.12-.05.03-.03.08-.07.15-.12l.14.07h.14c.34-.11.57-.17.68-.17h.71l1.36.17.27-.1c.14-.02.35-.03.65-.03.2.07.49.1.85.1.27,0,.78-.03,1.53-.1.43,0,.74.11.92.34s.33.5.44.82c0,.09.01.16.03.2v.17c.04.23.07.69.07,1.39.05.23.07.44.07.65-.05.18-.07.41-.07.68.02.11.03.4.03.85,0,.18-.01.31-.03.37.02.02.07.28.14.78.04.36.07.68.07.95-.09.27-.14,1.12-.14,2.55l.07.78c0,.52.02,1.01.07,1.46.05.45.07.8.07,1.05-.07.41-.1.7-.1.88s.01.32.03.41v.34l-.03.31c0,.29.03.5.1.61l.03.41c0,.23-.05.43-.14.61l.07.37c0,.11-.02.19-.07.24l-.14-.1.2,1.22c0,.54.01.89.03,1.04.02.15.03.29.03.43l-.07.82c0,.59.86,1.75,2.58,3.47.41.41.61.67.61.78v.03c0,.16-.06.27-.17.34-.29.14-.84.59-1.63,1.36-.79.77-1.19,1.29-1.19,1.56-.02.05-.03.12-.03.24l-.03,2.35c.02.09.03.6.03,1.53-.02.09-.03.27-.03.54,0,.32.01.52.03.61l.03.48-.03.44.03.38v1.6c-.05.27-.07.73-.07,1.36.02.05.03.12.03.24,0,.14-.01.26-.03.37l-.03.54c0,.34.02.74.07,1.19v.27c0,.07.06.14.19.2.12.07.24.1.36.1s.17.03.17.1-.14.24-.41.51l-.03.07s.19-.1.51-.31c.5-.32.85-.48,1.05-.48.14.02.86.03,2.18.03.07.02.16.03.27.03l.41.1s.25-.03.75-.03l.27.03c.11,0,.21-.01.31-.03.09-.02.25-.03.48-.03.16,0,.32.01.48.03.16.02.29.06.41.1.11.04.2.07.27.07.02,0,.03-.01.03-.03l-.07-.1s.07-.07.14-.07c.52,0,.98.12,1.38.38.4.25.6.56.6.92,0,2.86.01,4.33.03,4.42,0,.18-.05.35-.15.51-.1.16-.16.26-.17.29-.01.03-.04.07-.08.12-.36.02-.74.03-1.12.03-.54.05-.82.11-.82.2v.03l.1.14c-.11-.02-.27-.03-.48-.03-.11.04-.24.07-.37.07h-.99l-.34.03Zm-12.21-45.27l.1-.14-.1.1v.03Zm6.53,13.16l.07-.14-.03-.03-.03.17Z"/>
    <path class="cls-1" d="m269.73,138.24c-.16-.02-.37-.03-.65-.03-.32-.07-.5-.13-.56-.19s-.18-.17-.36-.32c-.29-.25-.44-.46-.44-.65l-.03-.14c0-.32.01-.5.03-.56.02-.06.03-.14.03-.25.07-.34.1-.92.1-1.73l-.03-2.48c0-.14-.02-.32-.07-.54v-.31c0-.09,0-.16.02-.22.01-.06.04-.32.08-.8l.03-.58c0-.18-.01-.36-.03-.54s-.03-.59-.03-1.22c.04-.61.07-1.24.07-1.89s-.01-1.31-.03-1.99c0-.2.02-.4.07-.59.04-.19.07-.38.07-.56.02-.04.03-.33.03-.85l.03-.14c0-.18-.02-.32-.07-.41l-.07-.41v-1.36c0-.18.02-.34.07-.48l.03-.27c0-.07-.01-.12-.03-.17-.02-.04-.03-.09-.03-.14,0-.07.01-.13.03-.19.02-.06.03-.23.03-.51s.01-.46.03-.54.03-.16.03-.26l-.03-.2c0-.36-.02-.62-.05-.77s-.05-.4-.05-.77c0-.14-.1-.21-.29-.24-.19-.02-.37-.03-.53-.03-.07,0-.14,0-.2-.02-.07-.01-.47-.02-1.19-.02l-.48.03c-.07.02-.59.03-1.56.03-.09.02-.36.03-.82.03l-.48.07c-.32.05-.48.11-.48.2l.03.17-.07.44c0,.07.01.13.03.19.02.06.03.73.03,2.02,0,.25-.01.39-.03.41v.85s.03.12.03.24.01.22.03.31l.03.41c-.02.14-.03.4-.03.78,0,.14.02.23.05.27.03.04.05.12.05.24,0,.14-.01.24-.03.31-.02.29-.03.83-.03,1.6.02.07.03.16.03.27l.1.58c0,.2-.02.35-.07.44,0,.14.02.24.05.31s.05.12.05.17c0,.16-.02.3-.07.42-.04.12-.07.31-.07.56,0,.73-.08,1.25-.24,1.56h.07c.16,0,.24.28.24.85v.88c0,.34.05.6.14.78.02.07.03.15.03.24,0,.45-.03.78-.1.99l-.03,1.53c.07.14.1.51.1,1.12l.07.27c0,.27-.03.46-.1.58,0,.64-.07,1.04-.22,1.21s-.66.25-1.55.25h-2.18c-.14.07-.41.1-.82.1-.16,0-.33-.02-.51-.07h-.31c-.18.05-.81.07-1.87.07-.7,0-1.11,0-1.22-.02-.11-.01-.27-.08-.46-.22-.19-.14-.33-.27-.43-.39-.09-.12-.16-.23-.2-.31-.04-.08-.09-.15-.14-.2-.05-.06-.07-.13-.07-.22,0-.07.03-.19.1-.36s.1-.33.1-.49c0-.09-.02-.17-.07-.24l.03-.54-.03-.71c0-.16-.02-.39-.07-.68v-.75c0-.25.11-.4.34-.44.36-.09.54-.23.54-.41,0-.11-.07-.23-.2-.36-.14-.12-.28-.19-.44-.19-.05,0-.1.09-.17.27l-.1.27s-.07-.17-.07-.51v-1.33l-.03-.44c0-.07.03-.12.08-.15.06-.03.08-.06.08-.08,0-.16-.05-.31-.14-.44-.09-.14-.14-.37-.14-.71.02-.09.03-.39.03-.88l-.1-.85c0-.63.01-.99.03-1.07.02-.08.03-.15.03-.22l-.03-.85s.03-.02.03-.07c0-.32-.05-.61-.14-.88-.02-.07-.03-.18-.03-.34l.03-.31-.03-.27c0-.68-.02-1.07-.05-1.16s-.05-.49-.05-1.19c0-.23-.01-.4-.03-.51,0-.14.01-.23.03-.29.02-.06.03-.13.03-.22-.07-.14-.1-.53-.1-1.19,0-.39.02-.62.05-.71.03-.09.06-.19.08-.31-.2-.2-.31-.59-.31-1.16-.2-.34-.5-.76-.88-1.26-.29-.39-.76-.78-1.39-1.19-.43-.32-.65-.59-.65-.82s.11-.53.34-.92c.18-.27.31-.45.37-.53.07-.08.13-.15.19-.2.06-.06.2-.21.43-.46.59-.54.88-.87.88-.99.2-.2.32-.35.34-.44.02-.09.07-.33.14-.71.07-.07.1-.21.1-.44l.1-.41c.16-.36.24-.58.24-.65l-.37.61s-.03-.09-.03-.14-.02-.09-.07-.14l.07-.51c0-.18-.03-.35-.1-.51l-.03-.27v-1.22c.02-.07.03-.15.03-.24-.07-.14-.1-.45-.1-.95l.03-.2c0-.14-.01-.27-.03-.39-.02-.12-.03-.24-.03-.36s-.01-.23-.03-.34c0-.25.01-.41.03-.48s.03-.12.03-.17l-.07-.54.1-.54c-.05-.29-.1-.66-.15-1.09s-.08-1.1-.08-2.01c0-.2.06-.82.17-1.84l.07-.37-.24.34s-.05-.03-.07-.1c-.02-.07-.05-.12-.07-.17,0-.25.01-.42.03-.51.07-.23.1-.4.1-.51l-.03-.2c-.05-.18-.07-.33-.07-.46s-.01-.25-.03-.39c0-.23.02-.42.05-.58.03-.16.05-.31.05-.44,0-.25-.02-.48-.07-.7-.04-.22-.07-.61-.07-1.17,0-.34-.02-.54-.07-.61-.05-.07-.07-.15-.07-.24,0-.11.01-.23.03-.36.02-.12.03-.47.03-1.04,0-.25-.03-.58-.1-.99,0-.23-.01-.4-.03-.53-.02-.12-.03-.21-.03-.25,0-.07.01-.12.03-.17l.17-.71h-.03l-.17.31-.07-.27s.01-.08.03-.12.03-.16.03-.39c.09-.18.19-.31.31-.38.11-.07.17-.12.17-.17,0-.02-.03-.03-.1-.03h-.07l.24-.07c.34-.07.6-.15.78-.24.16,0,.26-.02.31-.07.36,0,.6-.02.71-.07h1.39c.07.02.17.03.31.03l.31-.03c.48,0,.76-.01.85-.03h.27s-.01.05-.03.07h-.03.03c.16-.05.28-.07.37-.09.09-.01.15-.02.19-.03.03-.01.07-.03.12-.05h.17c.07-.02.26-.03.58-.03.54,0,.93-.02,1.16-.07l.31-.03c.88,0,1.54.16,1.97.48.43.32.65.95.65,1.9,0,.09-.01.18-.03.25-.02.08-.03.22-.03.43l.03.44c0,.09-.01.16-.03.2v1.02c.07.27.1.65.1,1.12.02.05.03.15.03.31s-.01.31-.03.44c0,.41.01.69.03.83s.03.31.03.49c0,.09-.01.19-.03.29-.02.1-.03.21-.03.32s.01.24.03.37c.02.14.03.27.03.41,0,.09-.01.16-.03.22s-.03.13-.03.22c0,.11.01.23.03.34s.03.27.03.48l-.31,1.29s.01.03.03.03c.07-.11.12-.17.17-.17.02,0,.03.28.03.85l.1,1.26c.07.36.1.64.1.82v.48c-.07.27-.1.71-.1,1.33l.03.68c0,.09-.01.16-.03.2l.1.92s-.01.1-.03.15-.03.2-.03.42c.02.07.03.16.03.27,0,.05-.02.09-.05.14-.03.05-.05.11-.05.2.09.23.14.67.14,1.33,0,.09-.02.17-.07.24l.1,1.12c0,.25.01.51.03.78.02.27.03.45.03.54s.03.17.08.24c.06.07.1.1.14.1s.13.01.29.03c.16.02.25.03.27.03.16,0,.42-.04.78-.14.25-.04.54-.07.88-.07.27.02.63.03,1.09.03.23.05.46.07.71.07l.03-.03c.41,0,.61.01.61.03s.02.03.07.03c.09,0,.23-.03.42-.1.19-.07.49-.12.9-.17,0-.04.01-.1.03-.15.02-.06.03-.12.03-.19-.09-.18-.14-.86-.14-2.04v-1.84c.02-.11.04-.19.05-.22.01-.03.03-.08.05-.14.02-.06.03-.12.03-.19,0-.09-.01-.16-.03-.22-.02-.06-.03-.15-.03-.29l.14-.54h-.03l-.07-.07c-.05-.14-.07-.32-.07-.54,0-.16.01-.28.03-.36.02-.08.03-.16.03-.25l-.03-.41c0-.07.01-.16.03-.27.02-.11.05-.26.07-.44s.03-.44.03-.78l-.07-.88c.02-.11.03-.24.03-.37l-.03-.51c0-.43.04-.78.14-1.05l-.03-.34c-.02-.11-.03-.26-.03-.44s-.01-.32-.03-.41c-.02-.09-.03-.24-.03-.44l.03-.71c.02-.16.03-.42.03-.78v-.95c.04-.09.07-.2.07-.34v-.31l-.14-.58v-.31c.07-.27.1-.66.1-1.16,0-.14-.02-.38-.07-.75l.03-.71c.02-.07.03-.15.03-.24s.02-.18.05-.26c.03-.08.05-.15.05-.22,0-.09-.01-.18-.03-.25s-.03-.15-.03-.22c0-.18.01-.34.03-.49.02-.15.03-.31.03-.49,0-.32-.01-.63-.03-.94-.02-.31-.03-.71-.03-1.21,0-1.41.69-2.11,2.08-2.11.11,0,.23.01.34.03.11.02.22.03.31.03.04,0,.11-.01.2-.03.09-.02.24-.04.44-.05.2-.01.59-.02,1.16-.02l.51.03c.41-.07.71-.1.92-.1s.4.02.58.07c.29,0,.56-.03.78-.1.11-.02.33-.03.65-.03l.31.03c.14-.02.33-.03.58-.03.16,0,.28-.01.37-.03.77,0,1.29.12,1.55.36s.39.69.39,1.34c0,.09-.01.17-.03.24,0,1-.02,1.66-.07,1.97,0,.36-.01.61-.03.75,0,.05.02.14.07.29.05.15.08.26.1.34.02.08.03.14.03.19,0,.16-.06.44-.17.85l-.03.34c.02.09.03.27.03.54l-.03.2c-.07.27-.11.44-.12.51-.01.07-.02.22-.02.44.05.11.07.24.07.37l.03.24c.09.16.14.27.14.34,0,.05-.06.18-.17.41-.05.2-.08.4-.12.58-.03.18-.05.37-.05.58l.03.2c0,.07-.01.12-.03.17,0,.27.01.5.03.68.02.07.03.31.03.71,0,.27-.02.52-.07.73-.05.22-.07.41-.07.6l.03.24-.03.2-.03,1.46c-.02.07-.03.15-.03.24s-.01.16-.03.2c.09.52.14.84.14.95-.07.75-.16,1.22-.27,1.43l-.03.14s0,.09.02.14c.01.05.04.1.08.15.04.06.07.13.07.22l-.1,1.77s.03.15.03.31c.02.02.03.09.03.2,0,.25-.01.44-.03.58s-.05.26-.07.37c-.02.11-.06.2-.1.27.02.07.03.15.03.24s.01.17.03.24l-.27-.17.17.34c0,.11-.01.19-.03.24l.03.07h.1c0,.23-.02.37-.07.44v.2l.1.1c0,.39-.02.64-.07.75-.02.02-.05.09-.07.2,0,.29-.02.56-.07.78v.37c.05.27.07.53.08.77.01.24.17.56.46.97.2.29.43.52.68.68.23.23.44.47.65.73s.42.49.65.7c.18.29.27.54.27.75-.05.2-.2.44-.48.71l-.61.61c-.39.48-.88.97-1.5,1.5-.02.05-.03.08-.03.12s-.02.09-.07.17c-.05.08-.11.28-.2.6-.02.11-.04.21-.05.29-.01.08-.13.22-.36.41s-.34.33-.34.42c0,.02.1.03.29.03s.29.17.29.51l.03.2c0,.23-.04.48-.12.77-.08.28-.12.55-.12.8,0,.09.01.17.03.24.02.07.03.19.03.38,0,1.9-.03,3.09-.1,3.57-.05.32-.07.65-.07.99s-.02.66-.07.95c-.05.29-.07.75-.07,1.36,0,.16.01.33.03.53.02.19.03.39.03.6,0,.23-.01.35-.03.37,0,.16-.01.26-.03.31,0,.14-.05.38-.14.71,0,.05.02.14.05.27.03.14.06.29.08.46s.03.29.03.36c0,.09-.01.15-.03.17,0,.23.01.41.03.54,0,.05-.05.13-.14.25-.09.12-.2.24-.34.36s-.2.19-.2.24c0,.02.02.03.07.03.04-.05.1-.07.17-.07.23,0,.34.16.34.48,0,.14-.06.39-.17.75-.02.14-.03.28-.03.44,0,.27-.11.56-.34.85-.09.11-.14.23-.14.34,0,.05.06.07.17.07.23.05.34.12.34.24,0,.27.01.45.03.54,0,.48-.02.71-.07.71-.02,0-.04-.02-.07-.07v-.03s-.11.11-.2.34c-.05.11-.07.23-.07.34,0,.02.03.03.1.03.05-.04.08-.07.1-.07h.1l.07,1.09c0,.27-.03.52-.1.75-.09.34-.18.59-.27.75-.11.34-.43.51-.95.51-.43,0-.78.01-1.04.03-.26.02-.61.03-1.04.03h-.78c-.27,0-.69-.07-1.26-.2-.11,0-.17.01-.17.03h.03l.07.1-.71.03c-.11.02-.27.03-.48.03l.14-.1c-.34.07-.81.1-1.39.1Zm-6.57-31.84s.03-.01.03-.03c0-.14-.07-.2-.2-.2-.05,0-.06.01-.03.03,0,.05.03.09.1.14l.1.07Zm5.27.51l.03-.07s-.05-.12-.14-.22c-.09-.1-.16-.17-.2-.2-.05-.03-.12-.05-.24-.05-.05.02-.07.05-.07.07,0,.04.02.11.07.19.04.08.14.15.27.2.14.06.23.08.27.08Zm6.56-22.89s.01-.03.03-.03h-.07l.03.03Zm.61.48c.07,0,.17-.05.29-.14.12-.09.19-.17.19-.24,0-.09-.09-.14-.27-.14h-.61c.18.34.32.51.41.51Zm.51-4.69s.04-.01.05-.03.05-.06.12-.12.1-.11.1-.15c0-.02-.11-.03-.34-.03s-.39-.01-.48-.03c-.09,0-.14.01-.14.03,0,.04.1.11.31.2s.33.14.37.14Z"/>
  </g>
  <path class="cls-1" d="m303.35,137.28h-1.19l-.54-.1s-.07.01-.07.03c-.09.02-.25.03-.48.03-.14-.02-.35-.03-.65-.03l-1.09.03c-.54,0-1.02-.19-1.43-.58-.23-.2-.34-.37-.34-.51,0-.02.02-.06.07-.1.05-.04.1-.44.17-1.19,0-.29.05-2.44.14-6.43,0-.25-.01-.49-.03-.71s-.03-.48-.03-.75c0-1.27.03-2.54.1-3.81v-.75l.07-.44-.03-.92c-.04-.14-.07-.26-.07-.38,0-.27.02-.41.07-.41s.08.01.1.03v-.24c-.09-.16-.14-.38-.14-.65,0-.34.07-.51.2-.51.09,0,.15.05.17.14l.1.07.03-.07s-.04-.12-.14-.24-.18-.24-.27-.39c-.09-.15-.14-.23-.14-.25-.07-.02-.12-.04-.17-.07-.04-.02-.16-.05-.36-.08s-.4-.07-.63-.12c-.23-.04-.44-.08-.65-.12-.2-.03-.33-.05-.39-.05h-.25c-.07,0-.12,0-.17.02-.05.01-.08.02-.1.02s-.03-.01-.03-.03l.37-.34c-.11.02-.25.07-.41.15-.16.08-.29.14-.41.17s-.23.07-.34.12c-.11.04-.18.07-.2.07l-.07-.07.2-.2-.92.17c-.18,0-.33.02-.46.07-.12.04-.23.31-.32.78-.2-.14-.34-.24-.41-.31v-.03c.16.5.27.85.32,1.05s.1.33.12.37c.02.05.03.12.03.24l-.03.75.03.31v.75c0,.27.01.48.03.61.02.14.03.28.03.44l-.07.82.03,1.16c0,.2.01.35.03.42.02.08.03.15.03.22,0,.09-.02.19-.05.29-.03.1-.05.22-.05.36,0,.29.01.48.03.54,0,.32.02.62.07.92,0,.16-.01.29-.03.41l-.03.48.07,1.05c0,.18-.03.33-.1.44-.02-.07-.04-.12-.05-.15-.01-.03-.06-.12-.15-.25-.02,0-.03.01-.03.03,0,.16.02.32.07.48.05.05.09.08.14.12.05.03.08.08.1.15,0,.36.01.58.03.65,0,.73.01,1.12.03,1.19,0,.32-.04.54-.14.68-.18.29-.46.54-.85.75-.25.14-.48.2-.68.2-.29.05-.58.06-.85.03h-.61c-.16,0-.28-.01-.38-.03-2.67,0-4.12-.01-4.32-.03-.63-.07-1.14-.2-1.53-.41-.41-.32-.61-.65-.61-.99l.03-.41v-.99c-.07-.11-.1-.38-.1-.82,0-.18.01-.35.03-.51,0-.39,0-.63.02-.73.01-.1.03-.21.05-.32l-.07-.65c-.09-.32-.14-.71-.14-1.19,0-.2.01-.36.03-.48,0-.14-.01-.23-.03-.29-.02-.06-.03-.13-.03-.22v-.19c0-.08.01-.16.03-.25.02-.09.06-.17.1-.24.05-.07.07-.1.08-.1s.02-.02.02-.07l-.1-.41c-.16-.34-.24-.63-.24-.88l.03-.68c0-.36-.02-.72-.05-1.07-.03-.35-.05-.71-.05-1.07,0-.04.01-.08.03-.1.02-.02.03-.06.03-.1-.07-.61-.1-1-.1-1.16l.07-.03c.14,0,.25.05.34.14h.03s.07-.07.07-.2c0-.54-.08-.94-.24-1.19,0-.02-.03-.03-.1-.03s-.11-.01-.14-.03c-.07-.16-.1-.66-.1-1.5-.07-.16-.11-.7-.14-1.63,0-.48-.03-.91-.1-1.29-.02-.23-.04-.38-.05-.46-.01-.08-.02-.13-.03-.15-.01-.02-.09-.17-.24-.43s-.27-2.14-.36-5.63c.25-.41.4-.75.44-1.02.02-.2.03-.44.03-.71-.02-.14-.03-.34-.03-.61-.04-.16-.07-.33-.07-.51l.03-.31c0-.14-.01-.24-.03-.31l-.1-.51c0-.07.01-.13.03-.19s.03-.11.03-.15-.01-.09-.03-.14-.03-.1-.03-.17c0-.09.01-.17.03-.24.02-.07.03-.16.03-.27l-.07-.37c0-.27.05-.52.14-.75l.03-.27-.07-.65s-.03-.1-.1-.24c-.07-.14-.1-.38-.1-.75s-.03-.73-.1-1.09v-.48c0-.2,0-.33.02-.37.01-.04.02-.11.02-.2l-.07-1.43s.01-.08.03-.12.03-.14.03-.32.01-.29.03-.34v-.07l.14-.03v-.03c-.09-.32-.14-.72-.14-1.22,0-.34-.02-.56-.07-.65-.16-.25-.24-.41-.24-.48,0-.16.02-.25.07-.29.05-.03.09-.18.14-.42.11-.61.29-1.34.54-2.18.68-2.22,2.55-3.92,5.61-5.1l1.05-.31c.34-.04.63-.09.87-.14.24-.04.43-.08.58-.12s.76-.05,1.85-.05c.05.02.12.03.24.03l.48.14.54-.14.85.03s.23.04.61.07c.34,0,.56-.01.66-.03.1-.02.2-.03.29-.03.05.02.1.05.15.08.06.03.2.05.42.05h1.53c.52.05.81.09.87.14.06.05.11.07.15.07.66,0,1.27.02,1.84.07,1.02.11,2.02.41,2.99.88.7.39,1.45.87,2.25,1.46.25.23.49.43.71.61s.43.36.61.54c.18.18.35.41.51.68l.14.31c.41,1.11.71,2.11.92,2.99.2.88.31,1.92.31,3.1-.02.05-.03.11-.03.2,0,.11.01.2.03.27v.34c0,.23-.11.44-.34.65-.11.09-.18.16-.2.2v.03s.05.03.14.03.18.08.27.24l.07.2c0,.23-.01.37-.03.44v.17s-.03.23-.03.54c-.04.27-.07.59-.07.95-.02.16-.08.31-.17.44l.14.54c0,.68-.03,1.07-.08,1.17-.06.1-.08.28-.08.53l.03.24c.02.32.03.74.03,1.26,0,.25-.01.44-.03.58-.04.5-.07,1-.07,1.5,0,.09.01.2.03.32.02.12.03.32.03.6,0,.25-.02.41-.05.49-.03.08-.05.14-.05.19.32.68.7,1.35,1.16,2.01.45.66.77,1.2.95,1.63.04.2.07.37.07.51-.02.05-.03.08-.03.1s-.02.04-.07.07c-.11.23-.46.62-1.05,1.19l-.82.82c-.29.34-.46.72-.51,1.14-.04.42-.07,1-.07,1.75,0,.59.02.92.07.99l-.1.44c-.07.11-.1.42-.1.92l.03.58c0,.64-.03,1.03-.1,1.19v3.3c-.11.34-.17.81-.17,1.39l.03.48c-.07.43-.1.71-.1.85,0,.11.01.2.03.26.02.06.03.31.03.76-.07.25-.1.62-.1,1.12l-.03.71c-.11,2.7-.18,4.41-.2,5.14s-.03,1.27-.03,1.63-.11.74-.34,1.12c-.25.32-.6.5-1.05.54-.27.05-.95.07-2.04.07-.11.02-.25.03-.41.03-.11,0-.21-.01-.31-.03Zm-5.61-27.18c.18,0,.3-.02.36-.07.06-.04.08-.27.08-.68,0-.16.02-.41.07-.75v-.44c-.07-.25-.1-.5-.1-.75,0-.32.01-.57.03-.75,0-.86.02-1.33.07-1.39.05-.07.07-.15.07-.24s-.01-.19-.03-.29c-.02-.1-.03-.2-.03-.29,0-.07,0-.12.02-.17.01-.04.02-.09.02-.14s0-.12-.02-.22c-.01-.1-.02-.35-.02-.73,0-.25.05-.44.14-.58.02,0,.03-.09.03-.27-.07-.5-.1-1.03-.1-1.6-.02-.29-.05-.48-.07-.56s-.03-.14-.03-.19l.1-.95c0-1.16.02-1.76.05-1.82s.05-.22.05-.49c0-.41-.01-.72-.03-.95-.02-.23-.03-.45-.03-.68,0-.16.01-.27.03-.34,0-.32-.04-.62-.14-.92-.25-.82-.74-1.29-1.46-1.43-.25-.02-.46-.05-.63-.08s-.32-.06-.44-.07c-.12-.01-.24-.03-.36-.05-.11,0-.24.01-.37.03-.14.02-.34.05-.63.07-.28.02-.53.05-.73.09-.2.03-.33.05-.37.05-.18.11-.34.25-.48.41-.27.27-.41.88-.41,1.84,0,.75.01,1.19.03,1.33,0,.18-.02.43-.07.75,0,.14.02.37.07.71,0,.61-.01.96-.03,1.05-.02.09-.03.18-.03.27,0,.54.05,1.28.14,2.21.02.11.03.28.03.51l-.07.1s.02.09.05.14c.03.05.05.44.05,1.19l-.07,1.63c0,.64.01.98.03,1.04s.03.28.03.66c0,.61.01,1.07.03,1.36v.68c-.02.09-.03.25-.03.48l-.07.48-.17-.31-.07.07s-.05.11-.08.19-.05.13-.05.15.04.03.12.03.16.05.25.14.14.19.15.29c.01.1.04.15.08.15l1.29.1c.07,0,.13-.01.19-.03.06-.02.23-.03.53-.03.36,0,.62.02.78.05.16.03.33.05.51.05.09,0,.17-.01.24-.03h.24c.11.05.24.07.37.07.14-.05.43-.07.88-.07Zm-4.97,7.08s-.01-.06-.03-.1c-.02-.04-.07-.11-.14-.19s-.11-.12-.14-.12l.03.07s.05.12.08.24c.03.11.08.17.15.17h.03v-.07Zm4.01.27l.03-.1s-.01-.03-.03-.03l-.31.1c-.2.05-.32.1-.34.17,0,.07.07.1.2.1.18,0,.33-.08.44-.24Z"/>
  <path class="cls-1" d="m150.79,17.39c0,.28-.19.52-.58.7-.31.14-.63.21-.94.21s-.65-.08-.96-.23c-.37-.18-.55-.42-.55-.7V3.95c0-.27.19-.5.58-.68.33-.17.64-.26.94-.26.24,0,.53.08.87.23.43.2.64.43.64.68v13.46Zm0-16.11c0,.87-.51,1.3-1.51,1.3s-1.52-.43-1.52-1.3.51-1.28,1.52-1.28,1.51.43,1.51,1.28Z"/>
  <path class="cls-1" d="m161.27,17.39c0,.28-.19.52-.58.7-.31.14-.63.21-.94.21s-.63-.08-.94-.23c-.38-.18-.58-.42-.58-.7V7.28c0-.31-.17-.6-.52-.85-.35-.26-.69-.38-1.01-.38-.3,0-.63.13-1,.39-.37.26-.55.54-.55.82v10.14c0,.28-.19.52-.58.7-.31.14-.63.21-.94.21s-.65-.08-.96-.23c-.37-.18-.55-.42-.55-.7V7.13c0-.68.24-1.36.73-2.03.44-.64.97-1.12,1.6-1.45.81-.43,1.56-.64,2.26-.64.3,0,.63.04,1,.11.82.16,1.63.65,2.4,1.49.78.84,1.16,1.67,1.16,2.5v10.28Z"/>
  <path class="cls-1" d="m171.68,13.72c0,1.25-.45,2.33-1.34,3.23-.9.9-1.97,1.36-3.22,1.36s-2.29-.44-3.21-1.31c-.92-.87-1.38-1.92-1.38-3.13,0-.84.51-1.26,1.52-1.26.26,0,.53.06.81.17.34.13.53.29.58.49.13.6.19.9.19.92.1.31.28.55.53.73.33.24.65.36.96.36.43,0,.79-.15,1.09-.46.3-.31.45-.67.45-1.1,0-.37-.12-.7-.35-.99-.23-.29-.53-.47-.89-.52l-1.13-.17c-.48-.09-.89-.19-1.22-.32-.74-.3-1.35-.86-1.84-1.69-.47-.78-.7-1.59-.7-2.43,0-1.27.45-2.35,1.34-3.24.9-.9,1.98-1.34,3.24-1.34s2.29.44,3.2,1.31c.91.87,1.37,1.92,1.37,3.13,0,.84-.5,1.26-1.51,1.26-.78,0-1.25-.23-1.41-.68-.09-.51-.14-.81-.17-.9-.09-.3-.26-.55-.51-.75-.33-.23-.65-.34-.96-.34-.41,0-.78.16-1.09.47s-.47.68-.47,1.09c0,.36.12.69.35.99.23.31.52.47.86.5l1.34.15c1.04.23,1.89.76,2.56,1.61.67.85,1,1.8,1,2.87"/>
  <path class="cls-1" d="m179.96,16.78c0,.7-.21,1.15-.62,1.36-.23.11-.69.17-1.39.17s-1.26-.04-1.6-.11c-.84-.17-1.64-.67-2.41-1.5-.77-.83-1.15-1.67-1.15-2.51V.92c0-.27.2-.5.59-.68.32-.16.64-.23.96-.23.84,0,1.34.31,1.48.92v2c.22.06.53.09.9.09h.53c.58,0,1,.1,1.26.31.26.21.39.6.39,1.18,0,.85-.31,1.33-.93,1.44-.69.01-1.38.04-2.08.06l-.06,7.89c.14.54.35.91.63,1.1.28.19.71.29,1.29.29h.55c.57,0,.99.11,1.26.32.27.21.41.61.41,1.18"/>
  <path class="cls-1" d="m183.75,17.39c0,.28-.19.52-.58.7-.31.14-.63.21-.94.21s-.65-.08-.96-.23c-.37-.18-.55-.42-.55-.7V3.95c0-.27.19-.5.58-.68.33-.17.64-.26.94-.26.24,0,.53.08.87.23.43.2.64.43.64.68v13.46Zm0-16.11c0,.87-.51,1.3-1.51,1.3s-1.52-.43-1.52-1.3.51-1.28,1.52-1.28,1.51.43,1.51,1.28Z"/>
  <path class="cls-1" d="m192.25,16.78c0,.7-.21,1.15-.62,1.36-.23.11-.69.17-1.39.17s-1.26-.04-1.6-.11c-.84-.17-1.64-.67-2.41-1.5-.77-.83-1.15-1.67-1.15-2.51V.92c0-.27.2-.5.59-.68.32-.16.64-.23.96-.23.84,0,1.34.31,1.48.92v2c.22.06.53.09.9.09h.53c.58,0,1,.1,1.26.31.26.21.39.6.39,1.18,0,.85-.31,1.33-.93,1.44-.69.01-1.38.04-2.08.06l-.06,7.89c.14.54.35.91.63,1.1.28.19.71.29,1.29.29h.55c.57,0,.99.11,1.26.32.27.21.41.61.41,1.18"/>
  <path class="cls-1" d="m202.17,14.21c0,.67-.23,1.34-.7,2.03-.46.63-.99,1.1-1.6,1.43-.81.43-1.56.64-2.26.64-1.34,0-2.48-.55-3.44-1.64-.77-.87-1.15-1.69-1.15-2.48V3.95c0-.27.19-.5.58-.68.33-.17.64-.26.94-.26.24,0,.53.08.87.23.43.2.64.43.64.68v10.13c0,.33.18.62.55.87.33.23.66.34,1,.34.3,0,.63-.13.99-.41.36-.27.54-.55.54-.83V3.95c0-.28.19-.52.58-.7.31-.16.63-.23.94-.23.24,0,.53.08.87.23.43.2.64.43.64.68v10.28Z"/>
  <path class="cls-1" d="m210.62,16.78c0,.7-.21,1.15-.62,1.36-.23.11-.69.17-1.39.17s-1.26-.04-1.6-.11c-.84-.17-1.64-.67-2.41-1.5-.77-.83-1.15-1.67-1.15-2.51V.92c0-.27.2-.5.59-.68.32-.16.64-.23.96-.23.84,0,1.34.31,1.48.92v2c.22.06.53.09.9.09h.53c.58,0,1,.1,1.26.31.26.21.39.6.39,1.18,0,.85-.31,1.33-.93,1.44-.69.01-1.38.04-2.08.06l-.06,7.89c.14.54.35.91.63,1.1.28.19.71.29,1.29.29h.55c.57,0,.99.11,1.26.32.27.21.41.61.41,1.18"/>
  <path class="cls-1" d="m217.51,14.06v-6.81c0-.27-.18-.54-.55-.81-.37-.27-.7-.41-.98-.41-.31,0-.65.13-1.01.39-.36.26-.54.54-.54.84v6.76c0,.28.18.56.55.83.37.27.7.41,1,.41s.63-.13.99-.39c.36-.26.54-.54.54-.82m3.03.15c0,.67-.23,1.34-.7,2.03-.46.63-.99,1.1-1.6,1.43-.81.43-1.56.64-2.26.64-1.34,0-2.48-.55-3.44-1.64-.77-.87-1.15-1.69-1.15-2.48v-7.06c0-.68.24-1.36.73-2.03.44-.64.97-1.12,1.6-1.45.81-.43,1.56-.64,2.26-.64.3,0,.63.04,1,.11.82.16,1.63.65,2.4,1.49.78.84,1.16,1.67,1.16,2.5v7.11Z"/>
</svg>