<?xml version="1.0" encoding="UTF-8"?>
<svg id="Camada_1" data-name="Camada 1" xmlns="http://www.w3.org/2000/svg" viewBox="0 0 326.33 147.73">
  <path d="m75.63,60.04l43.53,21.72c3.8-2.07,7.72-6.11,10.36-9.75l-52.51-26.02c-1.35,4.33-2.18,10.03-1.39,14.06" style="fill: #fff;"/>
  <path d="m130.43,62.47c-.83-5.53-1.93-11.02-3.29-16.45l-40.42-19.93c-3.05,3.24-5.72,7.11-6.75,11.5l50.46,24.88Z" style="fill: #fff;"/>
  <path d="m118.19,120.57c3.48-1.7,6.98-3.63,9.36-6.57,3.3-4.07,4.01-9.44,4.36-14.53.48-6.93.53-13.88.16-20.8-7.16,7.43-16.4,13.42-26.61,17.64-5.3,2.19-8.85,2.01-14.26,4.03-4.18,1.56-7.8,5.71-12.31,7.11-.13-4.94-.03-10.84-1.74-14.98-10.39-25.08-13.74-53.43,8.74-74.83,4.02-3.83,7.71-6.3,11.03-7.99-19.14-3.09-38.9-2.98-58.06.36-4.23.74-8.52,1.66-12.24,3.73-5.86,3.26-9.67,8.99-12.64,14.77C5,45.96,1.71,65.48.26,84.77c-.32,4.31-.55,8.71.62,12.87,2.77,9.76,12.48,16.07,21.7,21.18,12.96,7.19,29.23,15.12,44.75,15.36,17.03.27,35.92-6.29,50.86-13.61" style="fill: #fff;"/>
  <path d="m111.03,86.7l-34.34-17.38c-.16,3.51,1.45,8.09,2.43,11.14,2.64,8.32,12.78,13.99,21.14,10.95,2.72-.99,7.73-2.43,10.77-4.71" style="fill: #fff;"/>
  <text transform="translate(144.89 74.4)" style="fill: #fff; font-family: BlinkKiss, &apos;Blink Kiss&apos;; font-size: 65.65px;"><tspan x="0" y="0">casa </tspan></text>
  <text transform="translate(257.47 74.4)" style="fill: #fff; font-family: BlinkKiss, &apos;Blink Kiss&apos;; font-size: 65.65px;"><tspan x="0" y="0">de </tspan></text>
  <text transform="translate(146.94 137.39)" style="fill: #fff; font-family: BlinkKiss, &apos;Blink Kiss&apos;; font-size: 69.66px;"><tspan x="0" y="0">abelh</tspan></text>
  <text transform="translate(309.34 136.43) rotate(-180) scale(1 -1)" style="fill: #fff; font-family: BlinkKiss, &apos;Blink Kiss&apos;; font-size: 69.66px;"><tspan x="0" y="0">a</tspan></text>
  <path d="m150.79,17.39c0,.28-.19.52-.58.7-.31.14-.63.21-.94.21s-.65-.08-.96-.23c-.37-.18-.55-.42-.55-.7V3.95c0-.27.19-.5.58-.68.33-.17.64-.26.94-.26.24,0,.53.08.87.23.43.2.64.43.64.68v13.46Zm0-16.11c0,.87-.51,1.3-1.51,1.3s-1.52-.43-1.52-1.3.51-1.28,1.52-1.28,1.51.43,1.51,1.28Z" style="fill: #fff;"/>
  <path d="m161.27,17.39c0,.28-.19.52-.58.7-.31.14-.63.21-.94.21s-.63-.08-.94-.23c-.38-.18-.58-.42-.58-.7V7.28c0-.31-.17-.6-.52-.85-.35-.26-.69-.38-1.01-.38-.3,0-.63.13-1,.39-.37.26-.55.54-.55.82v10.14c0,.28-.19.52-.58.7-.31.14-.63.21-.94.21s-.65-.08-.96-.23c-.37-.18-.55-.42-.55-.7V7.13c0-.68.24-1.36.73-2.03.44-.64.97-1.12,1.6-1.45.81-.43,1.56-.64,2.26-.64.3,0,.63.04,1,.11.82.16,1.63.65,2.4,1.49.78.84,1.16,1.67,1.16,2.5v10.28Z" style="fill: #fff;"/>
  <path d="m171.68,13.72c0,1.25-.45,2.33-1.34,3.23-.9.9-1.97,1.36-3.22,1.36s-2.29-.44-3.21-1.31c-.92-.87-1.38-1.92-1.38-3.13,0-.84.51-1.26,1.52-1.26.26,0,.53.06.81.17.34.13.53.29.58.49.13.6.19.9.19.92.1.31.28.55.53.73.33.24.65.36.96.36.43,0,.79-.15,1.09-.46.3-.31.45-.67.45-1.1,0-.37-.12-.7-.35-.99-.23-.29-.53-.47-.89-.52l-1.13-.17c-.48-.09-.89-.19-1.22-.32-.74-.3-1.35-.86-1.84-1.69-.47-.78-.7-1.59-.7-2.43,0-1.27.45-2.35,1.34-3.24.9-.9,1.98-1.34,3.24-1.34s2.29.44,3.2,1.31c.91.87,1.37,1.92,1.37,3.13,0,.84-.5,1.26-1.51,1.26-.78,0-1.25-.23-1.41-.68-.09-.51-.14-.81-.17-.9-.09-.3-.26-.55-.51-.75-.33-.23-.65-.34-.96-.34-.41,0-.78.16-1.09.47s-.47.68-.47,1.09c0,.36.12.69.35.99.23.31.52.47.86.5l1.34.15c1.04.23,1.89.76,2.56,1.61.67.85,1,1.8,1,2.87" style="fill: #fff;"/>
  <path d="m179.96,16.78c0,.7-.21,1.15-.62,1.36-.23.11-.69.17-1.39.17s-1.26-.04-1.6-.11c-.84-.17-1.64-.67-2.41-1.5-.77-.83-1.15-1.67-1.15-2.51V.92c0-.27.2-.5.59-.68.32-.16.64-.23.96-.23.84,0,1.34.31,1.48.92v2c.22.06.53.09.9.09h.53c.58,0,1,.1,1.26.31.26.21.39.6.39,1.18,0,.85-.31,1.33-.93,1.44-.69.01-1.38.04-2.08.06l-.06,7.89c.14.54.35.91.63,1.1.28.19.71.29,1.29.29h.55c.57,0,.99.11,1.26.32.27.21.41.61.41,1.18" style="fill: #fff;"/>
  <path d="m183.75,17.39c0,.28-.19.52-.58.7-.31.14-.63.21-.94.21s-.65-.08-.96-.23c-.37-.18-.55-.42-.55-.7V3.95c0-.27.19-.5.58-.68.33-.17.64-.26.94-.26.24,0,.53.08.87.23.43.2.64.43.64.68v13.46Zm0-16.11c0,.87-.51,1.3-1.51,1.3s-1.52-.43-1.52-1.3.51-1.28,1.52-1.28,1.51.43,1.51,1.28Z" style="fill: #fff;"/>
  <path d="m192.25,16.78c0,.7-.21,1.15-.62,1.36-.23.11-.69.17-1.39.17s-1.26-.04-1.6-.11c-.84-.17-1.64-.67-2.41-1.5-.77-.83-1.15-1.67-1.15-2.51V.92c0-.27.2-.5.59-.68.32-.16.64-.23.96-.23.84,0,1.34.31,1.48.92v2c.22.06.53.09.9.09h.53c.58,0,1,.1,1.26.31.26.21.39.6.39,1.18,0,.85-.31,1.33-.93,1.44-.69.01-1.38.04-2.08.06l-.06,7.89c.14.54.35.91.63,1.1.28.19.71.29,1.29.29h.55c.57,0,.99.11,1.26.32.27.21.41.61.41,1.18" style="fill: #fff;"/>
  <path d="m202.17,14.21c0,.67-.23,1.34-.7,2.03-.46.63-.99,1.1-1.6,1.43-.81.43-1.56.64-2.26.64-1.34,0-2.48-.55-3.44-1.64-.77-.87-1.15-1.69-1.15-2.48V3.95c0-.27.19-.5.58-.68.33-.17.64-.26.94-.26.24,0,.53.08.87.23.43.2.64.43.64.68v10.13c0,.33.18.62.55.87.33.23.66.34,1,.34.3,0,.63-.13.99-.41.36-.27.54-.55.54-.83V3.95c0-.28.19-.52.58-.7.31-.16.63-.23.94-.23.24,0,.53.08.87.23.43.2.64.43.64.68v10.28Z" style="fill: #fff;"/>
  <path d="m210.62,16.78c0,.7-.21,1.15-.62,1.36-.23.11-.69.17-1.39.17s-1.26-.04-1.6-.11c-.84-.17-1.64-.67-2.41-1.5-.77-.83-1.15-1.67-1.15-2.51V.92c0-.27.2-.5.59-.68.32-.16.64-.23.96-.23.84,0,1.34.31,1.48.92v2c.22.06.53.09.9.09h.53c.58,0,1,.1,1.26.31.26.21.39.6.39,1.18,0,.85-.31,1.33-.93,1.44-.69.01-1.38.04-2.08.06l-.06,7.89c.14.54.35.91.63,1.1.28.19.71.29,1.29.29h.55c.57,0,.99.11,1.26.32.27.21.41.61.41,1.18" style="fill: #fff;"/>
  <path d="m217.51,14.06v-6.81c0-.27-.18-.54-.55-.81-.37-.27-.7-.41-.98-.41-.31,0-.65.13-1.01.39-.36.26-.54.54-.54.84v6.76c0,.28.18.56.55.83.37.27.7.41,1,.41s.63-.13.99-.39c.36-.26.54-.54.54-.82m3.03.15c0,.67-.23,1.34-.7,2.03-.46.63-.99,1.1-1.6,1.43-.81.43-1.56.64-2.26.64-1.34,0-2.48-.55-3.44-1.64-.77-.87-1.15-1.69-1.15-2.48v-7.06c0-.68.24-1.36.73-2.03.44-.64.97-1.12,1.6-1.45.81-.43,1.56-.64,2.26-.64.3,0,.63.04,1,.11.82.16,1.63.65,2.4,1.49.78.84,1.16,1.67,1.16,2.5v7.11Z" style="fill: #fff;"/>
</svg>